<svg xmlns="http://www.w3.org/2000/svg" xmlns:xlink="http://www.w3.org/1999/xlink" viewBox="0 0 71.362 88.626" width="130px" height="130px">
  <defs>
    <style>
      .cls-1, .cls-3 {
        fill: #558de8;
      }

      .cls-2, .cls-3 {
        stroke: none;
      }

      .cls-4 {
        filter: url(#Pfad_150);
      }
    </style>
    <filter id="Pfad_150" x="0" y="0" width="71.362" height="88.626" filterUnits="userSpaceOnUse">
      <feOffset dy="3" input="SourceAlpha"/>
      <feGaussianBlur stdDeviation="3" result="blur"/>
      <feFlood flood-color="#558de8"/>
      <feComposite operator="in" in2="blur"/>
      <feComposite in="SourceGraphic"/>
    </filter>
  </defs>
  <g class="cls-4" transform="matrix(1, 0, 0, 1, 0, 0)">
    <g id="Pfad_150-2" data-name="Pfad 150" class="cls-1" transform="translate(-57.57 10)">
      <path class="cls-2" d="M 93.2537841796875 64.62596893310547 C 93.25371551513672 64.62596893310547 93.25367736816406 64.62596893310547 93.25360870361328 64.62596893310547 C 92.10760498046875 64.62593078613281 91.01142883300781 64.13704681396484 90.24614715576172 63.28469085693359 C 89.66284942626953 62.63510131835938 84.39559173583984 56.71139907836914 79.16661834716797 48.88496017456055 C 76.11185455322266 44.31275177001953 73.67669677734375 39.99024200439453 71.92879486083984 36.03747940063477 C 69.70205688476562 31.00189018249512 68.57300567626953 26.50800132751465 68.57300567626953 22.68066024780273 C 68.57300567626953 9.071700096130371 79.64480590820312 -1.999999523162842 93.25389099121094 -1.999999523162842 C 106.8627014160156 -1.999999523162842 117.9344787597656 9.071680068969727 117.9347305297852 22.68062019348145 C 117.9347305297852 26.50800132751465 116.8056793212891 31.00189018249512 114.5789413452148 36.03747940063477 C 112.8310394287109 39.99023056030273 110.3958892822266 44.31275177001953 107.3411254882812 48.88494873046875 C 102.1123199462891 56.7111701965332 96.84492492675781 62.63507080078125 96.26152801513672 63.28478240966797 C 95.496337890625 64.13707733154297 94.40000915527344 64.62596893310547 93.2537841796875 64.62596893310547 Z"/>
      <path class="cls-3" d="M 93.25388336181641 -3.814697265625e-06 C 80.74757385253906 -3.814697265625e-06 70.57300567626953 10.17453765869141 70.57300567626953 22.68065643310547 C 70.57300567626953 38.20114898681641 90.87014770507812 60.98614883422852 91.73433685302734 61.94853591918945 C 92.13998413085938 62.40034103393555 92.69692993164062 62.62597274780273 93.25368499755859 62.62597274780273 C 93.81098937988281 62.62597274780273 94.36810302734375 62.39998245239258 94.77340698242188 61.94853591918945 C 95.63758850097656 60.98614883422852 115.9347305297852 38.20114898681641 115.9347305297852 22.68065643310547 C 115.9345016479492 10.17453765869141 105.7600479125977 -3.814697265625e-06 93.25388336181641 -3.814697265625e-06 M 93.25388336181641 -4.000003814697266 C 107.9654922485352 -4.000003814697266 119.9344711303711 7.968856811523438 119.9347305297852 22.68058395385742 C 119.9347305297852 29.94985580444336 116.2571411132812 39.14006805419922 109.0041122436523 49.99602127075195 C 103.697998046875 57.93793869018555 98.34278869628906 63.96044158935547 97.74961853027344 64.62101745605469 C 96.60575866699219 65.89510345458984 94.96696472167969 66.6259765625 93.25367736816406 66.6259765625 C 91.54070281982422 66.6259765625 89.90209197998047 65.89513397216797 88.75797271728516 64.62085723876953 C 88.16500091552734 63.96050262451172 82.8099365234375 57.938232421875 77.50363159179688 49.99602127075195 C 70.25059509277344 39.14006805419922 66.57300567626953 29.94985580444336 66.57300567626953 22.68065643310547 C 66.57300567626953 7.968891143798828 78.54199981689453 -4.000003814697266 93.25388336181641 -4.000003814697266 Z"/>
    </g>
  </g>
</svg>
