<svg id="user_3_" data-name="user (3)" xmlns="http://www.w3.org/2000/svg" viewBox="0 0 37.581 37.583">
  <defs>
    <style>
      .cls-1 {
        fill: #e7eced;
      }

      .cls-2 {
        fill: #556080;
      }
    </style>
  </defs>
  <path id="Pfad_91" data-name="Pfad 91" class="cls-1" d="M15.944,31.792l-5.607,3.058a5.039,5.039,0,0,0-.9.64,18.779,18.779,0,0,0,24.129.062,4.974,4.974,0,0,0-.988-.662l-6-3a2.29,2.29,0,0,1-1.266-2.048V27.486a9.068,9.068,0,0,0,.568-.73,13.815,13.815,0,0,0,1.866-3.761A1.886,1.886,0,0,0,29.079,21.2V18.686a1.877,1.877,0,0,0-.628-1.393V13.658S29.2,8,21.537,8s-6.914,5.657-6.914,5.657v3.635A1.875,1.875,0,0,0,14,18.686V21.2a1.885,1.885,0,0,0,.869,1.582,12.478,12.478,0,0,0,2.273,4.7v2.3A2.292,2.292,0,0,1,15.944,31.792Z" transform="translate(-2.745 -2.327)"/>
  <g id="Gruppe_128" data-name="Gruppe 128" transform="translate(0 0)">
    <path id="Pfad_92" data-name="Pfad 92" class="cls-2" d="M19.113,0A18.78,18.78,0,0,0,6.7,33.158a4.994,4.994,0,0,1,.891-.634L13.2,29.466a2.29,2.29,0,0,0,1.193-2.01v-2.3a12.466,12.466,0,0,1-2.273-4.7,1.886,1.886,0,0,1-.869-1.582V16.358a1.877,1.877,0,0,1,.628-1.393V11.329s-.747-5.657,6.914-5.657S25.7,11.329,25.7,11.329v3.635a1.875,1.875,0,0,1,.628,1.393v2.515A1.886,1.886,0,0,1,25,20.666a13.815,13.815,0,0,1-1.866,3.761,9.068,9.068,0,0,1-.568.73v2.356a2.289,2.289,0,0,0,1.266,2.048l6,3a5,5,0,0,1,.986.661A18.787,18.787,0,0,0,19.113,0Z" transform="translate(0 0)"/>
  </g>
</svg>
