<svg xmlns="http://www.w3.org/2000/svg" viewBox="0 0 84.974 84.974">
  <defs>
    <style>
      .cls-1 {
        fill: #94a9bd;
      }

      .cls-2 {
        fill: #fff;
      }
    </style>
  </defs>
  <g id="Gruppe_190" data-name="Gruppe 190" transform="translate(-971 -135)">
    <g id="Gruppe_88" data-name="Gruppe 88" transform="translate(971 135)">
      <circle id="Ellipse_32" data-name="Ellipse 32" class="cls-1" cx="42.487" cy="42.487" r="42.487"/>
    </g>
    <g id="wind-sign_1_" data-name="wind-sign (1)" transform="translate(997.166 159.477)">
      <g id="Gruppe_91" data-name="Gruppe 91" transform="translate(0 0)">
        <path id="Pfad_37" data-name="Pfad 37" class="cls-2" d="M18.045,119.438H44.2a6.877,6.877,0,0,0,.016-13.753,6.808,6.808,0,0,0-4.6,1.79A6.452,6.452,0,0,0,37.79,112.3a1.614,1.614,0,1,0,3.228,0,3.39,3.39,0,0,1,.835-2.5,3.632,3.632,0,0,1,2.313-.889H44.2a3.649,3.649,0,1,1,0,7.3H18.045a1.614,1.614,0,0,0,0,3.228Z" transform="translate(-16.431 -99.362)"/>
        <path id="Pfad_38" data-name="Pfad 38" class="cls-2" d="M18.045,13.754H30.511A6.877,6.877,0,0,0,30.528,0a6.805,6.805,0,0,0-4.6,1.79A6.453,6.453,0,0,0,24.1,6.613a1.614,1.614,0,1,0,3.228,0,3.39,3.39,0,0,1,.835-2.5,3.633,3.633,0,0,1,2.314-.889h.034a3.649,3.649,0,1,1,0,7.3H18.045a1.614,1.614,0,0,0,0,3.228Z" transform="translate(-16.431 0)"/>
        <path id="Pfad_39" data-name="Pfad 39" class="cls-2" d="M44.2,382.093H18.045a1.614,1.614,0,1,0,0,3.228H44.2a3.649,3.649,0,1,1,0,7.3h-.034a3.633,3.633,0,0,1-2.313-.889,3.39,3.39,0,0,1-.835-2.5,1.614,1.614,0,1,0-3.228,0,6.452,6.452,0,0,0,1.825,4.822,6.794,6.794,0,0,0,4.546,1.791h.055a6.877,6.877,0,0,0-.017-13.753Z" transform="translate(-16.431 -359.235)"/>
      </g>
    </g>
  </g>
</svg>
