<svg xmlns="http://www.w3.org/2000/svg" viewBox="0 0 84.976 84.976">
  <defs>
    <style>
      .cls-1 {
        fill: #e09011;
      }

      .cls-2 {
        fill: #fff;
      }
    </style>
  </defs>
  <g id="Gruppe_187" data-name="Gruppe 187" transform="translate(-604.563 -135)">
    <circle id="Ellipse_20" data-name="Ellipse 20" class="cls-1" cx="42.488" cy="42.488" r="42.488" transform="translate(604.563 135)"/>
    <g id="Gruppe_39" data-name="Gruppe 39" transform="translate(626.302 155.818)">
      <g id="bike" transform="translate(0 0)">
        <path id="Pfad_6" data-name="Pfad 6" class="cls-2" d="M33.719,74.569a7.95,7.95,0,0,0-.96.06l-1.98-6.776a1.287,1.287,0,0,0-.977-2.126H24.487a1.288,1.288,0,1,0,0,2.577h3.366l-1.368,2.178a1.2,1.2,0,0,0-.184-.01L14.8,70.638a1.288,1.288,0,0,0-.822-2.281h-3.1a1.288,1.288,0,0,0,0,2.577H11.1a1.283,1.283,0,0,0,.143.335l.517.851-1.428,2.817a7.941,7.941,0,1,0,5.353,9.31l4.249.246.075,0a1.288,1.288,0,0,0,1.091-.6L29.074,71.2l1.211,4.147a7.939,7.939,0,1,0,3.434-.782Zm-20.382.144,4.294,7.067-1.793-.1a7.942,7.942,0,0,0-3.207-5.569Zm-10.76,7.8a5.36,5.36,0,0,1,6.569-5.226L6.792,81.928A1.288,1.288,0,0,0,7.866,83.8l5.2.3A5.364,5.364,0,0,1,2.577,82.51Zm7.4-1.173,1.463-2.886a5.364,5.364,0,0,1,1.77,3.073Zm10.047-.576-4.591-7.555,9.423-.137Zm13.692,7.113a5.362,5.362,0,0,1-2.7-10l1.459,5a1.288,1.288,0,1,0,2.473-.722l-1.46-5c.074,0,.148-.006.223-.006a5.364,5.364,0,1,1,0,10.728Z" transform="translate(0 -65.727)"/>
      </g>
      <g id="Gruppe_11" data-name="Gruppe 11" transform="translate(7.166 26.357)">
        <path id="Pfad_7" data-name="Pfad 7" class="cls-2" d="M.461,70.87H20.287v2.766a.469.469,0,0,0,.792.331l4.611-4.611a.489.489,0,0,0,0-.663l-4.6-4.6a.542.542,0,0,0-.346-.144.444.444,0,0,0-.461.461v2.766H.461a.443.443,0,0,0-.324.137A.443.443,0,0,0,0,67.642v2.766a.443.443,0,0,0,.137.324A.443.443,0,0,0,.461,70.87Z" transform="translate(0 -63.954)"/>
        <path id="Pfad_8" data-name="Pfad 8" class="cls-2" d="M25.358,249.909H5.533v-2.766a.467.467,0,0,0-.461-.461.449.449,0,0,0-.331.13L.13,251.422a.45.45,0,0,0-.13.332.43.43,0,0,0,.13.317l4.6,4.611a.542.542,0,0,0,.346.144.467.467,0,0,0,.461-.461V253.6H25.358a.467.467,0,0,0,.461-.461V250.37a.467.467,0,0,0-.461-.461Z" transform="translate(0 -237.461)"/>
      </g>
    </g>
  </g>
</svg>
