<svg xmlns="http://www.w3.org/2000/svg" viewBox="0 0 85.14 85.14">
  <defs>
    <style>
      .cls-1 {
        fill: #477632;
      }

      .cls-2 {
        fill: #fff;
      }
    </style>
  </defs>
  <g id="Gruppe_185" data-name="Gruppe 185" transform="translate(-364 -135)">
    <circle id="Ellipse_21" data-name="Ellipse 21" class="cls-1" cx="42.57" cy="42.57" r="42.57" transform="translate(364 135)"/>
    <g id="electric-car" transform="translate(390.04 157.023)">
      <path id="Pfad_9" data-name="Pfad 9" class="cls-2" d="M93.884,64.031,93,64.284V74.8h13.819V64.284l-.884-.253A21.911,21.911,0,0,0,93.884,64.031Zm10.5,8.326H95.439V66.146a19.467,19.467,0,0,1,8.942,0Zm0,0" transform="translate(-85.793 -58.05)"/>
      <path id="Pfad_10" data-name="Pfad 10" class="cls-2" d="M134.89,271.335l-2.264-.906-2.783,6.956h4.227L132.626,281l2.264.906,2.783-6.956h-4.227Zm0,0" transform="translate(-119.694 -249.392)"/>
      <path id="Pfad_11" data-name="Pfad 11" class="cls-2" d="M39.142,3.938V0H36.779V3.938h-3.15V0H31.266V3.938H30.085v4.41a5.127,5.127,0,0,0,3.938,4.98V29.652a1.536,1.536,0,0,1-3.072,0V20.595a3.9,3.9,0,0,0-3.9-3.9h-.079a3.874,3.874,0,0,0-1.536.316V3.544A3.548,3.548,0,0,0,21.894,0H6.143A3.548,3.548,0,0,0,2.6,3.544V37.961H0v2.363H28.037V37.961h-2.6V20.595a1.537,1.537,0,0,1,1.536-1.536h.079a1.537,1.537,0,0,1,1.536,1.536v9.057a3.9,3.9,0,1,0,7.8,0V13.328a5.127,5.127,0,0,0,3.938-4.98V3.938ZM23.076,37.961H4.962V3.544A1.183,1.183,0,0,1,6.143,2.363H21.894a1.183,1.183,0,0,1,1.181,1.181ZM37.961,8.348a2.756,2.756,0,1,1-5.513,0V6.3h5.513Zm0,0" transform="translate(0 0)"/>
    </g>
  </g>
</svg>
