<svg xmlns="http://www.w3.org/2000/svg" viewBox="0 0 84.974 84.974">
  <defs>
    <style>
      .cls-1 {
        fill: #c44921;
      }

      .cls-2 {
        fill: #fff;
      }
    </style>
  </defs>
  <g id="Gruppe_193" data-name="Gruppe 193" transform="translate(-1522 -134)">
    <g id="Gruppe_175" data-name="Gruppe 175">
      <circle id="Ellipse_28" data-name="Ellipse 28" class="cls-1" cx="42.487" cy="42.487" r="42.487" transform="translate(1522 134)"/>
      <g id="clock_3_" data-name="clock (3)" transform="translate(1540 151.832)">
        <g id="Gruppe_174" data-name="Gruppe 174" transform="translate(0 0.168)">
          <path id="Pfad_109" data-name="Pfad 109" class="cls-2" d="M46.443,14.926A23.7,23.7,0,0,0,33.563,2.1,23.774,23.774,0,0,0,24.147.168,23.528,23.528,0,0,0,14.758,2.1,23.774,23.774,0,0,0,1.9,14.926a24.164,24.164,0,0,0,0,18.8A23.825,23.825,0,0,0,14.758,46.585a23.529,23.529,0,0,0,9.389,1.93,23.782,23.782,0,0,0,9.415-1.93,23.751,23.751,0,0,0,12.88-12.854,23.859,23.859,0,0,0,0-18.8ZM42.582,35a21.22,21.22,0,0,1-7.776,7.749,20.832,20.832,0,0,1-10.658,2.856A20.481,20.481,0,0,1,15.9,43.913a21.625,21.625,0,0,1-6.771-4.522,21.5,21.5,0,0,1-4.522-6.8,20.823,20.823,0,0,1-1.666-8.278,20.792,20.792,0,0,1,2.83-10.632,21.23,21.23,0,0,1,7.749-7.749A20.67,20.67,0,0,1,24.147,3.077,20.831,20.831,0,0,1,34.805,5.934a21.284,21.284,0,0,1,7.776,7.749,20.672,20.672,0,0,1,2.856,10.632A20.87,20.87,0,0,1,42.582,35Z" transform="translate(0 -0.168)"/>
          <path id="Pfad_110" data-name="Pfad 110" class="cls-2" d="M290.082,126.1V112.4a1.525,1.525,0,0,0-1.534-1.481,1.491,1.491,0,0,0-1.455,1.481v13.912a1.209,1.209,0,0,1,.053.212,1.383,1.383,0,0,0,.4,1.191l7.908,7.908a1.5,1.5,0,0,0,2.036,0,1.426,1.426,0,0,0,0-2.063Z" transform="translate(-264.401 -102.167)"/>
        </g>
      </g>
    </g>
  </g>
</svg>
