<svg xmlns="http://www.w3.org/2000/svg" viewBox="0 0 85.14 85.14">
  <defs>
    <style>
      .cls-1 {
        fill: #7fcbfa;
      }

      .cls-2 {
        fill: none;
      }

      .cls-3, .cls-5 {
        fill: #fff;
      }

      .cls-3 {
        font-size: 28px;
        font-family: Roboto-Bold, Roboto;
        font-weight: 700;
      }

      .cls-4, .cls-5 {
        stroke: none;
      }
    </style>
  </defs>
  <g id="Gruppe_183" data-name="Gruppe 183" transform="translate(-123 -135)">
    <circle id="Ellipse_23" data-name="Ellipse 23" class="cls-1" cx="42.57" cy="42.57" r="42.57" transform="translate(123 135)"/>
    <g id="Gruppe_102" data-name="Gruppe 102">
      <g id="Pfad_36" data-name="Pfad 36" class="cls-2" transform="translate(141 154)">
        <path class="cls-4" d="M24.149,0A24.149,24.149,0,1,1,0,24.149,24.149,24.149,0,0,1,24.149,0Z"/>
        <path class="cls-5" d="M 24.1488208770752 4 C 18.76687049865723 4 13.70706176757812 6.095840454101562 9.901451110839844 9.901439666748047 C 6.095840454101562 13.70703887939453 4 18.76683044433594 4 24.14875984191895 C 4 29.53068923950195 6.095840454101562 34.59048080444336 9.901451110839844 38.39608001708984 C 13.70706176757812 42.20167922973633 18.76687049865723 44.29751968383789 24.1488208770752 44.29751968383789 C 29.53077125549316 44.29751968383789 34.59057998657227 42.20167922973633 38.39619064331055 38.39608001708984 C 42.20180130004883 34.59048080444336 44.29764175415039 29.53068923950195 44.29764175415039 24.14875984191895 C 44.29764175415039 18.76683044433594 42.20180130004883 13.70703887939453 38.39619064331055 9.901439666748047 C 34.59057998657227 6.095840454101562 29.53077125549316 4 24.1488208770752 4 M 24.1488208770752 0 C 37.4858512878418 0 48.29764175415039 10.81177139282227 48.29764175415039 24.14875984191895 C 48.29764175415039 37.48574829101562 37.4858512878418 48.29751968383789 24.1488208770752 48.29751968383789 C 10.81179046630859 48.29751968383789 0 37.48574829101562 0 24.14875984191895 C 0 10.81177139282227 10.81179046630859 0 24.1488208770752 0 Z"/>
      </g>
      <text id="P" class="cls-3" transform="translate(158.14 187.378)"><tspan x="0" y="0">P</tspan></text>
    </g>
  </g>
</svg>
