<svg xmlns="http://www.w3.org/2000/svg" viewBox="0 0 85 85">
  <defs>
    <style>
      .cls-1 {
        fill: #896b3a;
      }

      .cls-2 {
        fill: #fff;
      }
    </style>
  </defs>
  <g id="Gruppe_191" data-name="Gruppe 191" transform="translate(-1089.059 -135.788)">
    <g id="Gruppe_154" data-name="Gruppe 154" transform="translate(-432.246 -0.165)">
      <g id="Gruppe_153" data-name="Gruppe 153" transform="translate(1521.304 135.953)">
        <circle id="Ellipse_26" data-name="Ellipse 26" class="cls-1" cx="42.5" cy="42.5" r="42.5" transform="translate(0 0)"/>
      </g>
      <g id="road-perspective_1_" data-name="road-perspective (1)" transform="translate(1541.206 159.669)">
        <path id="Pfad_95" data-name="Pfad 95" class="cls-2" d="M45.793,104.939,35.149,78.29a2.09,2.09,0,0,0-.663-.842,1.556,1.556,0,0,0-.97-.358H24.862a.828.828,0,0,1,.587.242.865.865,0,0,1,.281.574l.383,4.9a.718.718,0,0,1-.2.587.765.765,0,0,1-.562.23H21.11a.764.764,0,0,1-.561-.23.716.716,0,0,1-.2-.587l.383-4.9a.861.861,0,0,1,.281-.574.829.829,0,0,1,.587-.242H12.942a1.555,1.555,0,0,0-.97.358,2.09,2.09,0,0,0-.663.842L.664,104.939A7.686,7.686,0,0,0,0,107.9q0,1.863,1.174,1.863h17.97a.744.744,0,0,1-.561-.242.721.721,0,0,1-.2-.575l.51-6.534a.863.863,0,0,1,.281-.575.826.826,0,0,1,.587-.242H26.7a.827.827,0,0,1,.587.242.862.862,0,0,1,.281.575l.511,6.534a.722.722,0,0,1-.2.575.744.744,0,0,1-.562.242h17.97q1.174,0,1.174-1.863A7.685,7.685,0,0,0,45.793,104.939Zm-18.71-8.96a.585.585,0,0,1-.2.51.78.78,0,0,1-.536.2H20.114a.78.78,0,0,1-.536-.2.585.585,0,0,1-.2-.51v-.1l.613-8.168a.862.862,0,0,1,.281-.574.827.827,0,0,1,.587-.242H25.6a.826.826,0,0,1,.587.242.864.864,0,0,1,.281.574l.613,8.168v.1Z" transform="translate(0 -77.09)"/>
      </g>
    </g>
  </g>
</svg>
