<svg xmlns="http://www.w3.org/2000/svg" viewBox="0 0 84.974 84.974">
  <defs>
    <style>
      .cls-1 {
        fill: #996cbf;
      }

      .cls-2 {
        fill: #fff;
      }
    </style>
  </defs>
  <g id="Gruppe_188" data-name="Gruppe 188" transform="translate(-727.703 -135)">
    <circle id="Ellipse_26" data-name="Ellipse 26" class="cls-1" cx="42.487" cy="42.487" r="42.487" transform="translate(727.703 135)"/>
    <g id="car-front_1_" data-name="car-front (1)" transform="translate(749.913 159.768)">
      <g id="time-to-leave" transform="translate(0 0)">
        <path id="Pfad_1" data-name="Pfad 1" class="cls-2" d="M35.8,27.751A3.386,3.386,0,0,0,32.645,25.5H7.88a3.179,3.179,0,0,0-3.152,2.251L0,41.26V59.271a2.127,2.127,0,0,0,2.251,2.251H4.5a2.127,2.127,0,0,0,2.251-2.251V57.02H33.771v2.251a2.127,2.127,0,0,0,2.251,2.251h2.251a2.127,2.127,0,0,0,2.251-2.251V41.26ZM7.88,50.265a3.377,3.377,0,1,1,0-6.754,3.377,3.377,0,1,1,0,6.754Zm24.765,0a3.377,3.377,0,1,1,3.377-3.377A3.463,3.463,0,0,1,32.645,50.265ZM4.5,39.008,7.88,28.877H32.645l3.377,10.131Z" transform="translate(0 -25.5)"/>
      </g>
    </g>
  </g>
</svg>
