<svg xmlns="http://www.w3.org/2000/svg" viewBox="0 0 84.976 84.976">
  <defs>
    <style>
      .cls-1 {
        fill: #eac324;
      }

      .cls-2 {
        fill: #fff;
      }
    </style>
  </defs>
  <g id="Gruppe_189" data-name="Gruppe 189" transform="translate(-850 -135)">
    <circle id="Ellipse_27" data-name="Ellipse 27" class="cls-1" cx="42.488" cy="42.488" r="42.488" transform="translate(850 135)"/>
    <g id="sun_1_" data-name="sun (1)" transform="translate(870 154.246)">
      <g id="Gruppe_26" data-name="Gruppe 26">
        <path id="Pfad_15" data-name="Pfad 15" class="cls-2" d="M22.351,11.269A11.083,11.083,0,1,0,33.432,22.352,11.095,11.095,0,0,0,22.351,11.269Z" transform="translate(-0.229 -0.228)"/>
        <g id="Gruppe_25" data-name="Gruppe 25">
          <g id="Gruppe_17" data-name="Gruppe 17" transform="translate(19.96)">
            <path id="Pfad_16" data-name="Pfad 16" class="cls-2" d="M22.535,7.783a2.162,2.162,0,0,1-2.162-2.161V2.162a2.162,2.162,0,1,1,4.324,0V5.622A2.163,2.163,0,0,1,22.535,7.783Z" transform="translate(-20.373)"/>
          </g>
          <g id="Gruppe_18" data-name="Gruppe 18" transform="translate(19.96 36.461)">
            <path id="Pfad_17" data-name="Pfad 17" class="cls-2" d="M22.535,37.215a2.162,2.162,0,0,0-2.162,2.162v3.458a2.162,2.162,0,1,0,4.324,0V39.377A2.163,2.163,0,0,0,22.535,37.215Z" transform="translate(-20.373 -37.215)"/>
          </g>
          <g id="Gruppe_19" data-name="Gruppe 19" transform="translate(31.628 5.846)">
            <path id="Pfad_18" data-name="Pfad 18" class="cls-2" d="M32.915,12.1a2.164,2.164,0,0,1,0-3.058L35.361,6.6a2.162,2.162,0,1,1,3.058,3.058L35.973,12.1A2.162,2.162,0,0,1,32.915,12.1Z" transform="translate(-32.282 -5.967)"/>
          </g>
          <g id="Gruppe_20" data-name="Gruppe 20" transform="translate(5.846 31.628)">
            <path id="Pfad_19" data-name="Pfad 19" class="cls-2" d="M12.1,32.917a2.16,2.16,0,0,0-3.058,0L6.6,35.362A2.162,2.162,0,0,0,9.658,38.42L12.1,35.973A2.16,2.16,0,0,0,12.1,32.917Z" transform="translate(-5.967 -32.283)"/>
          </g>
          <g id="Gruppe_21" data-name="Gruppe 21" transform="translate(36.46 19.96)">
            <path id="Pfad_20" data-name="Pfad 20" class="cls-2" d="M37.215,22.535a2.162,2.162,0,0,1,2.162-2.162h3.459a2.162,2.162,0,1,1,0,4.324H39.377A2.161,2.161,0,0,1,37.215,22.535Z" transform="translate(-37.215 -20.373)"/>
          </g>
          <g id="Gruppe_22" data-name="Gruppe 22" transform="translate(0 19.96)">
            <path id="Pfad_21" data-name="Pfad 21" class="cls-2" d="M7.783,22.535a2.162,2.162,0,0,0-2.162-2.162H2.162a2.162,2.162,0,1,0,0,4.324H5.622A2.161,2.161,0,0,0,7.783,22.535Z" transform="translate(0 -20.373)"/>
          </g>
          <g id="Gruppe_23" data-name="Gruppe 23" transform="translate(31.627 31.63)">
            <path id="Pfad_22" data-name="Pfad 22" class="cls-2" d="M32.915,32.917a2.164,2.164,0,0,1,3.058,0l2.446,2.446a2.162,2.162,0,1,1-3.058,3.057l-2.446-2.446A2.161,2.161,0,0,1,32.915,32.917Z" transform="translate(-32.281 -32.284)"/>
          </g>
          <g id="Gruppe_24" data-name="Gruppe 24" transform="translate(5.846 5.847)">
            <path id="Pfad_23" data-name="Pfad 23" class="cls-2" d="M12.1,12.1a2.162,2.162,0,0,0,0-3.058L9.658,6.6A2.162,2.162,0,1,0,6.6,9.658L9.046,12.1A2.16,2.16,0,0,0,12.1,12.1Z" transform="translate(-5.966 -5.967)"/>
          </g>
        </g>
      </g>
    </g>
  </g>
</svg>
