<?xml version="1.0" encoding="UTF-8" standalone="no"?>
<svg xmlns="http://www.w3.org/2000/svg" width="43.199" height="45" viewBox="0 0 43.199 45" version="1.1">
    <g transform="translate(16418.783,22650.785)">
        <g transform="translate(-16418,-22650)">
            <path d="m -24.814,-56.463 h 9.467 v 0.636 a 3.408,3.408 0 0 1 -3.589,3.181 h -2.154 v 1.273 h 1.436 v 0.636 a 3.408,3.408 0 0 1 -3.589,3.181 H -25.4 v 1.272 h 1.436 v 0.636 a 3.408,3.408 0 0 1 -3.589,3.181 h -2.872 a 3.407,3.407 0 0 1 -3.589,-3.181 v -0.636 h 1.436 v -1.272 h -2.153 a 3.407,3.407 0 0 1 -3.589,-3.181 v -0.636 h 1.436 v -1.273 h -2.154 a 3.407,3.407 0 0 1 -3.589,-3.181 v -0.636 h 9.434"
                  transform="translate(49.803,58.258)"
                  style="fill:none;stroke:#ffffff;stroke-width:1;stroke-linecap:round;stroke-linejoin:round"/>
            <path d="m -45.181,-21.511 -4.184,4.184 a 0.72,0.72 0 0 0 -0.21,0.508 v 4.43 h 4.307 a 1.437,1.437 0 0 1 -1.432,-1.435 v -1.436 a 1.438,1.438 0 0 1 1.435,-1.44 h 1.436 a 1.438,1.438 0 0 1 1.429,1.435 v 1.436 a 1.437,1.437 0 0 1 -1.436,1.436 h 4.307 a 1.437,1.437 0 0 1 -1.436,-1.436 v -1.431 a 1.436,1.436 0 0 1 1.438,-1.44 h 1.437 a 1.438,1.438 0 0 1 1.438,1.436 v 1.439 a 1.437,1.437 0 0 1 -1.436,1.436 h 3.59 v -6.54 l 0.311,-2.789 h -10.486 a 0.725,0.725 0 0 0 -0.508,0.21 z"
                  transform="translate(49.292,54.022)"
                  style="fill:none;stroke:#ffffff;stroke-width:1;stroke-linecap:round;stroke-linejoin:round"/>
            <path d="m -25.965,-34.128 a 0.719,0.719 0 0 0 -0.718,-0.718 h -2.871 a 0.719,0.719 0 0 0 -0.718,0.718 v 0.718 h 4.307 z"
                  transform="translate(48.935,53.944)"
                  style="fill:none;stroke:#ffffff;stroke-width:1;stroke-linecap:round;stroke-linejoin:round"/>
            <path d="M -38.861,-34.291 V -34.53 A 0.728,0.728 0 0 0 -39,-34.96 l -1.436,-1.915 a 0.724,0.724 0 0 0 -0.574,-0.286 h -9.332 v 3.589 h 10.767 a 0.718,0.718 0 0 0 0.714,-0.719 z"
                  transform="translate(50.346,54.107)"
                  style="fill:none;stroke:#ffffff;stroke-width:1;stroke-linecap:round;stroke-linejoin:round"/>
            <path d="m -44.2,-25.127 h 3.277 v -6.629 h -9.427 v 10.6 l 4.483,-3.439 a 2.749,2.749 0 0 1 1.667,-0.532 z"
                  transform="translate(50.346,54.727)"
                  style="fill:none;stroke:#ffffff;stroke-width:1;stroke-linecap:round;stroke-linejoin:round"/>
            <path d="m -30.456,-31.756 -1.361,12.243 v 6.42 h 7.179 v -6.42 L -26,-31.756 Z"
                  transform="translate(49.044,54.727)"
                  style="fill:none;stroke:#ffffff;stroke-width:1;stroke-linecap:round;stroke-linejoin:round"/>
            <path d="m -22.588,-18.957 v 6.457 h 12.923 v -10.764 h -13.4 z m 7.179,-0.718 a 1.438,1.438 0 0 1 1.436,-1.436 h 1.436 a 1.438,1.438 0 0 1 1.437,1.436 v 1.432 a 1.437,1.437 0 0 1 -1.436,1.436 h -1.435 a 1.437,1.437 0 0 1 -1.436,-1.436 z m -5.743,0 a 1.438,1.438 0 0 1 1.436,-1.436 h 1.436 a 1.438,1.438 0 0 1 1.436,1.436 v 1.432 a 1.437,1.437 0 0 1 -1.436,1.436 h -1.436 a 1.437,1.437 0 0 1 -1.436,-1.436 z"
                  transform="translate(49.429,54.13)"
                  style="fill:none;stroke:#ffffff;stroke-width:1;stroke-linecap:round;stroke-linejoin:round"/>
            <path d="m -7.7,-27.44 -1.436,-3.039 a 0.689,0.689 0 0 0 -0.575,-0.455 h -13.952 l 0.4,5.7 h 14.99 c 0.4,0 0.718,-0.51 0.718,-1.139 v -0.379 A 1.634,1.634 0 0 0 -7.7,-27.44 Z"
                  transform="translate(49.471,53.669)"
                  style="fill:none;stroke:#ffffff;stroke-width:1;stroke-linecap:round;stroke-linejoin:round"/>
            <g transform="translate(1.398,24.537)">
                <rect width="2.789" height="2.789" rx="1" x="0" y="0" style="fill:none"/>
                <rect width="1.859" height="1.859" rx="0.5" transform="translate(0.465,0.465)" x="0" y="0"
                      style="fill:none;stroke:#ffffff;stroke-width:1;stroke-linecap:round;stroke-linejoin:round"/>
            </g>
            <g transform="translate(5.117,24.537)">
                <rect width="2.789" height="2.789" rx="1" x="0" y="0" style="fill:none"/>
                <rect width="1.859" height="1.859" rx="0.5" transform="translate(0.465,0.465)" x="0" y="0"
                      style="fill:none;stroke:#ffffff;stroke-width:1;stroke-linecap:round;stroke-linejoin:round"/>
            </g>
            <g transform="translate(26.501,24.467)">
                <rect width="2.789" height="2.789" rx="1" x="0" y="0" style="fill:none"/>
                <rect width="1.859" height="1.859" rx="0.5" transform="translate(0.465,0.465)" x="0" y="0"
                      style="fill:none;stroke:#ffffff;stroke-width:1;stroke-linecap:round;stroke-linejoin:round"/>
            </g>
            <g transform="translate(31.15,24.467)">
                <rect width="2.789" height="2.789" rx="1" x="0" y="0" style="fill:none"/>
                <rect width="1.859" height="1.859" rx="0.5" transform="translate(0.465,0.465)" x="0" y="0"
                      style="fill:none;stroke:#ffffff;stroke-width:1;stroke-linecap:round;stroke-linejoin:round"/>
            </g>
            <g transform="translate(35.798,24.467)">
                <rect width="2.789" height="2.789" rx="1" x="0" y="0" style="fill:none"/>
                <rect width="1.859" height="1.859" rx="0.5" transform="translate(0.465,0.465)" x="0" y="0"
                      style="fill:none;stroke:#ffffff;stroke-width:1;stroke-linecap:round;stroke-linejoin:round"/>
            </g>
        </g>
    </g>
</svg>