<?xml version="1.0" encoding="UTF-8" standalone="no"?>
<svg xmlns="http://www.w3.org/2000/svg" width="25.183" height="45" viewBox="0 0 25.183 45" version="1.1">
    <g transform="translate(19533.674,21272.354)">
        <path d="M 16.313,6 A 0.675,0.675 0 0 0 15.701,6.675 V 30.306 H 13.612 A 0.675,0.675 0 0 0 13,30.981 v 4.051 a 0.675,0.675 0 0 0 0.675,0.675 h 18.231 a 0.675,0.675 0 1 0 0,-1.35 H 14.35 v -2.7 h 19.581 v 3.376 a 0.675,0.675 0 1 0 1.35,0 V 30.981 A 0.675,0.675 0 0 0 34.606,30.306 H 32.581 V 28.28 h 2.363 a 1.723,1.723 0 0 0 1.234,-0.464 1.7,1.7 0 0 0 0.454,-1.224 V 19.5 h 0.675 a 0.675,0.675 0 0 0 0.675,-0.675 v -8.1 A 0.675,0.675 0 0 0 37.307,10.05 H 32.581 V 6.674 A 0.675,0.675 0 0 0 31.906,6 Z m 0.739,1.35 h 14.179 v 22.956 h -14.18 z m 1.962,2.026 a 0.675,0.675 0 0 0 -0.612,0.675 v 4.726 a 0.675,0.675 0 0 0 0.675,0.675 H 29.2 a 0.675,0.675 0 0 0 0.675,-0.675 V 10.05 A 0.675,0.675 0 0 0 29.2,9.375 H 19.014 Z m 0.739,1.35 H 28.53 V 14.1 h -8.778 z m 12.829,0.675 h 4.051 v 6.752 h -1.35 v -4.727 a 0.675,0.675 0 0 0 -0.675,-0.675 h -2.027 z m 0,2.7 h 1.35 v 4.726 a 0.675,0.675 0 0 0 0.675,0.675 h 0.675 v 7.09 c 0,0.216 -0.049,0.26 -0.063,0.274 -0.014,0.014 -0.058,0.063 -0.274,0.063 h -2.364 z"
              transform="translate(-19546.574,-21270.707)" style="fill:#ffffff;stroke:none"/>
    </g>
    <path d="M-19525.4-21251.109h5.76l-4.283,3.029h4.814l-4.814,4.469" transform="translate(19533.674 21264.809)"
          fill="none" stroke="#fff" stroke-linecap="round" stroke-linejoin="round" stroke-width="1"/>
</svg>