<?xml version="1.0" encoding="UTF-8" standalone="no"?>
<svg xmlns="http://www.w3.org/2000/svg" width="35.999" height="45" viewBox="0 0 35.999 45" version="1.1">
    <g transform="translate(19592.999,21322.405)">
        <path d="m 46.429,12.871 a 0.429,0.429 0 0 0 0.429,-0.429 V 9.435 h 1.288 A 1.718,1.718 0 1 0 48.146,6 H 46.429 A 0.429,0.429 0 0 0 46,6.429 v 6.012 a 0.429,0.429 0 0 0 0.429,0.43 z m 0.429,-6.012 h 1.288 a 0.923,0.923 0 0 1 0.627,0.253 0.859,0.859 0 0 1 0,1.211 0.923,0.923 0 0 1 -0.627,0.253 h -1.287 z"
              transform="translate(-19610.803,-21316.793)" style="fill:#ffffff;stroke:#ffffff;stroke-width:0.25"/>
        <line y1="13.989" transform="translate(-19562.777,-21301.5)" x1="0" x2="0" y2="0"
              style="fill:none;stroke:#ffffff;stroke-width:1;stroke-linecap:round"/>
        <g transform="translate(-19569,-21313)"
           style="fill:none;stroke:#ffffff;stroke-width:1;stroke-linecap:round;stroke-linejoin:round">
            <rect width="12" height="12" id="rect4" x="0" y="0" style="stroke:none"/>
            <rect x="0.5" y="0.5" width="11" height="11" id="rect6" style="fill:none"/>
        </g>
    </g>
    <g transform="translate(-170.319,-77.511)">
        <path d="m 172.641,109.211 a 0.519,0.519 0 0 0 -0.51,0.526 v 0 2.329 a 1.044,1.044 0 0 0 1.035,1.036 h 2.071 a 1.044,1.044 0 0 0 1.035,-1.036 v -2.329 a 0.518,0.518 0 0 0 -1.035,-0.045 0.335,0.335 0 0 0 0,0.045 v 2.329 h -2.071 v -2.329 a 0.519,0.519 0 0 0 -0.51,-0.526 z m 15.012,0 a 0.519,0.519 0 0 0 -0.51,0.526 v 0 2.329 a 1.044,1.044 0 0 0 1.035,1.035 h 2.071 a 1.045,1.045 0 0 0 1.035,-1.035 v -2.329 a 0.518,0.518 0 1 0 -1.035,-0.045 0.341,0.341 0 0 0 0,0.045 v 2.329 h -2.071 v -2.329 a 0.519,0.519 0 0 0 -0.51,-0.526 z"
              style="fill:#ffffff"/>
        <path d="m 178.035,106.374 a 0.518,0.518 0 0 0 -0.469,0.518 v 2.33 a 0.51801086,0.51801086 0 1 0 1.035,0.046 0.35,0.35 0 0 0 0,-0.046 v -1.812 h 6.212 v 1.812 a 0.51801086,0.51801086 0 1 0 1.035,0.046 0.356,0.356 0 0 0 0,-0.046 v -2.33 a 0.519,0.519 0 0 0 -0.517,-0.518 z"
              style="fill:#ffffff"/>
        <path d="m 174.2,101.975 a 1.812,1.812 0 1 0 1.812,1.812 1.812,1.812 0 0 0 -1.812,-1.812 z m 0,1.035 a 0.769,0.769 0 1 1 -0.014,0 z"
              style="fill:#ffffff"/>
        <path d="m 189.214,101.975 a 1.812,1.812 0 1 0 1.812,1.812 1.812,1.812 0 0 0 -1.812,-1.812 z m 0,1.035 a 0.769,0.769 0 1 1 -0.014,0 z"
              style="fill:#ffffff"/>
        <g>
            <path d="m 183.678,93.951 h 2.689 a 3.864,3.864 0 0 1 3.882,3.844 v 3.064 a 0.517,0.517 0 0 0 0.27,0.457 c 1.066,0.573 1.537,1.191 1.537,1.7 v 4.4 a 0.51801086,0.51801086 0 1 0 1.035,0.046 0.356,0.356 0 0 0 0,-0.046 v -4.4 a 3.052,3.052 0 0 0 -1.807,-2.44 v -2.742 a 4.918,4.918 0 0 0 -4.918,-4.918 h -2.688 z"
                  style="fill:#ffffff"/>
            <path d="m 192.623,108.964 h -21.269 v -5.954 c 0,-0.508 0.471,-1.126 1.537,-1.7 a 0.518,0.518 0 0 0 0.275,-0.453 v -3.023 a 3.863,3.863 0 0 1 3.843,-3.883 h 2.077 v -1.035 h -2.037 a 4.918,4.918 0 0 0 -4.918,4.918 v 2.742 a 3.052,3.052 0 0 0 -1.812,2.434 v 6.471 a 0.518,0.518 0 0 0 0.518,0.518 h 21.741 a 0.518,0.518 0 1 0 0.045,-1.035 z"
                  style="fill:#ffffff"/>
            <path d="m 175.69,96.1 a 2.42,2.42 0 0 0 -0.971,2 v 1.939 a 0.518,0.518 0 0 0 0.522,0.514 0.482,0.482 0 0 0 0.141,-0.021 23.12,23.12 0 0 1 12.65,0 0.517,0.517 0 0 0 0.642,-0.352 0.481,0.481 0 0 0 0.021,-0.141 v -1.946 a 2.423,2.423 0 0 0 -0.971,-2 3.606,3.606 0 0 0 -2.135,-0.591 h -7.764 A 3.606,3.606 0 0 0 175.69,96.1 Z m 9.9,0.444 a 2.666,2.666 0 0 1 1.529,0.4 1.28,1.28 0 0 1 0.542,1.157 v 1.283 a 23.456,23.456 0 0 0 -11.906,0 v -1.291 a 1.279,1.279 0 0 1 0.541,-1.157 2.665,2.665 0 0 1 1.529,-0.4 h 7.765 z"
                  style="fill:#ffffff"/>
        </g>
        <path d="m 179.1,92.917 a 0.516,0.516 0 0 0 0,1.032 h 1.549 a 0.51634969,0.51634969 0 1 0 0.038,-1.032 z"
              style="fill:#ffffff"/>
        <path d="m 183.715,92.917 a 0.516,0.516 0 0 0 0,1.032 h 1.548 a 0.51634969,0.51634969 0 1 0 0.038,-1.032 z"
              style="fill:#ffffff"/>
    </g>
</svg>