<?xml version="1.0" encoding="UTF-8" standalone="no"?>
<svg xmlns="http://www.w3.org/2000/svg" width="31.252" height="45" viewBox="0 0 31.252 45" version="1.1">
    <g transform="translate(-86.171,-358.491)">
        <g>
            <path d="m 113.436,377.985 h -0.377 a 4.351,4.351 0 0 0 -1.044,-2.311 4.92,4.92 0 0 0 -7.544,-6.317 5.152,5.152 0 0 0 -0.326,0.436 c -0.093,0 -0.184,-0.011 -0.278,-0.011 a 5.965,5.965 0 0 0 -5.281,3.342 5.443,5.443 0 0 0 0.359,10.876 h 2.117 v -1.094 h -2.119 a 4.373,4.373 0 0 1 -0.077,-8.745 0.548,0.548 0 0 0 0.49,-0.329 4.92,4.92 0 0 1 9.336,1.006 0.549,0.549 0 0 0 0.472,0.439 3.274,3.274 0 0 1 2.9,3.255 0.548,0.548 0 0 0 0.547,0.547 h 0.82 a 1.914,1.914 0 0 1 0,3.827 h -2.908 V 384 h 2.9 a 3.008,3.008 0 0 0 0,-6.015 z m -2.239,-3.038 a 4.309,4.309 0 0 0 -1.56,-0.651 6.027,6.027 0 0 0 -4.256,-4.314 3.8241648,3.8241648 0 0 1 5.816,4.967 z"
                  stroke-miterlimit="10"
                  style="fill:#ffffff;stroke:#ffffff;stroke-width:0.30000001;stroke-linecap:round;stroke-linejoin:round;stroke-miterlimit:10"/>
            <g>
                <path d="m 115.071,370.2 a 0.547,0.547 0 0 0 0,1.093 h 1.641 a 0.547,0.547 0 0 0 0.039,-1.093 z"
                      stroke-miterlimit="10"
                      style="fill:#ffffff;stroke:#ffffff;stroke-width:0.30000001;stroke-miterlimit:10"/>
                <path d="m 109.045,362.534 a 0.546,0.546 0 0 0 -0.539,0.554 v 0 1.64 a 0.547,0.547 0 0 0 1.093,0.04 v -1.678 a 0.547,0.547 0 0 0 -0.539,-0.555 h -0.015 z"
                      stroke-miterlimit="10"
                      style="fill:#ffffff;stroke:#ffffff;stroke-width:0.30000001;stroke-miterlimit:10"/>
                <path d="m 114.456,364.777 a 0.546,0.546 0 0 0 -0.376,0.166 l -1.16,1.16 a 0.54732486,0.54732486 0 1 0 0.733,0.813 c 0.014,-0.013 0.027,-0.026 0.04,-0.04 l 1.16,-1.161 a 0.547,0.547 0 0 0 -0.4,-0.938 z"
                      stroke-miterlimit="10"
                      style="fill:#ffffff;stroke:#ffffff;stroke-width:0.30000001;stroke-miterlimit:10"/>
                <path d="m 103.633,364.777 a 0.547,0.547 0 0 0 -0.385,0.938 l 1.16,1.161 a 0.54704593,0.54704593 0 0 0 0.829,-0.714 l -0.017,-0.019 a 0.488,0.488 0 0 0 -0.039,-0.04 l -1.156,-1.16 a 0.548,0.548 0 0 0 -0.393,-0.166 z"
                      stroke-miterlimit="10"
                      style="fill:#ffffff;stroke:#ffffff;stroke-width:0.30000001;stroke-miterlimit:10"/>
            </g>
        </g>
        <g>
            <path d="m 112.171,398.249 h -7.181 l -0.612,-4.485 a 0.674,0.674 0 0 0 -0.664,-0.58 h -5.446 a 0.675,0.675 0 0 0 -0.6,0.58 l -0.612,4.484 H 87.9 l 6.146,-13.335 h -1.479 l -6.333,13.726 a 0.676,0.676 0 0 0 0.327,0.9 0.688,0.688 0 0 0 0.285,0.063 h 25.322 a 0.675,0.675 0 0 0 0,-1.35 z m -13.754,0 0.5,-3.714 h 4.22 l 0.5,3.714 z"
                  style="fill:#ffffff"/>
            <path d="m 115.815,398.624 -8.1,-17.545 a 0.673,0.673 0 0 0 -0.612,-0.39 h -3.47 v 1.354 h 3.045 l 7.913,17.151 a 0.67510666,0.67510666 0 0 0 1.224,-0.57 z"
                  style="fill:#ffffff"/>
            <path d="m 98.6,391.826 a 0.7,0.7 0 0 0 0.091,0.007 h 4.664 a 0.675,0.675 0 0 0 0.671,-0.679 0.558,0.558 0 0 0 -0.007,-0.091 l -0.591,-4.389 a 0.674,0.674 0 0 0 -0.664,-0.58 h -3.545 a 0.673,0.673 0 0 0 -0.6,0.58 l -0.591,4.389 a 0.675,0.675 0 0 0 0.572,0.763 z m 1.261,-4.382 h 2.321 l 0.4,3.038 h -3.12 z"
                  style="fill:#ffffff"/>
        </g>
    </g>
</svg>