<?xml version="1.0" encoding="UTF-8" standalone="no"?>
<svg xmlns="http://www.w3.org/2000/svg" width="34.301" height="45" viewBox="0 0 34.301 45" version="1.1">
    <g transform="translate(24240.999,23553.657)">
        <g transform="translate(-24411.318,-23628.916)">
            <path d="m 172.641,109.211 a 0.519,0.519 0 0 0 -0.51,0.526 v 0 2.329 a 1.044,1.044 0 0 0 1.035,1.036 h 2.071 a 1.044,1.044 0 0 0 1.035,-1.036 v -2.329 a 0.518,0.518 0 0 0 -1.035,-0.045 0.335,0.335 0 0 0 0,0.045 v 2.329 h -2.071 v -2.329 a 0.519,0.519 0 0 0 -0.51,-0.526 z m 15.012,0 a 0.519,0.519 0 0 0 -0.51,0.526 v 0 2.329 a 1.044,1.044 0 0 0 1.035,1.035 h 2.071 a 1.045,1.045 0 0 0 1.035,-1.035 v -2.329 a 0.518,0.518 0 1 0 -1.035,-0.045 0.341,0.341 0 0 0 0,0.045 v 2.329 h -2.071 v -2.329 a 0.519,0.519 0 0 0 -0.51,-0.526 z"
                  style="fill:#ffffff"/>
            <path d="m 178.035,106.374 a 0.518,0.518 0 0 0 -0.469,0.518 v 2.33 a 0.51801086,0.51801086 0 1 0 1.035,0.046 0.35,0.35 0 0 0 0,-0.046 v -1.812 h 6.212 v 1.812 a 0.51801086,0.51801086 0 1 0 1.035,0.046 0.356,0.356 0 0 0 0,-0.046 v -2.33 a 0.519,0.519 0 0 0 -0.517,-0.518 z"
                  style="fill:#ffffff"/>
            <path d="m 174.2,101.975 a 1.812,1.812 0 1 0 1.812,1.812 1.812,1.812 0 0 0 -1.812,-1.812 z m 0,1.035 a 0.769,0.769 0 1 1 -0.014,0 z"
                  style="fill:#ffffff"/>
            <path d="m 189.214,101.975 a 1.812,1.812 0 1 0 1.812,1.812 1.812,1.812 0 0 0 -1.812,-1.812 z m 0,1.035 a 0.769,0.769 0 1 1 -0.014,0 z"
                  style="fill:#ffffff"/>
            <g>
                <path d="m 183.678,93.951 h 2.689 a 3.864,3.864 0 0 1 3.882,3.844 v 3.064 a 0.517,0.517 0 0 0 0.27,0.457 c 1.066,0.573 1.537,1.191 1.537,1.7 v 4.4 a 0.51801086,0.51801086 0 1 0 1.035,0.046 0.356,0.356 0 0 0 0,-0.046 v -4.4 a 3.052,3.052 0 0 0 -1.807,-2.44 v -2.742 a 4.918,4.918 0 0 0 -4.918,-4.918 h -2.688 z"
                      style="fill:#ffffff"/>
                <path d="m 192.623,108.964 h -21.269 v -5.954 c 0,-0.508 0.471,-1.126 1.537,-1.7 a 0.518,0.518 0 0 0 0.275,-0.453 v -3.023 a 3.863,3.863 0 0 1 3.843,-3.883 h 2.077 v -1.035 h -2.037 a 4.918,4.918 0 0 0 -4.918,4.918 v 2.742 a 3.052,3.052 0 0 0 -1.812,2.434 v 6.471 a 0.518,0.518 0 0 0 0.518,0.518 h 21.741 a 0.518,0.518 0 1 0 0.045,-1.035 z"
                      style="fill:#ffffff"/>
                <path d="m 175.69,96.1 a 2.42,2.42 0 0 0 -0.971,2 v 1.939 a 0.518,0.518 0 0 0 0.522,0.514 0.482,0.482 0 0 0 0.141,-0.021 23.12,23.12 0 0 1 12.65,0 0.517,0.517 0 0 0 0.642,-0.352 0.481,0.481 0 0 0 0.021,-0.141 v -1.946 a 2.423,2.423 0 0 0 -0.971,-2 3.606,3.606 0 0 0 -2.135,-0.591 h -7.764 A 3.606,3.606 0 0 0 175.69,96.1 Z m 9.9,0.444 a 2.666,2.666 0 0 1 1.529,0.4 1.28,1.28 0 0 1 0.542,1.157 v 1.283 a 23.456,23.456 0 0 0 -11.906,0 v -1.291 a 1.279,1.279 0 0 1 0.541,-1.157 2.665,2.665 0 0 1 1.529,-0.4 h 7.765 z"
                      style="fill:#ffffff"/>
            </g>
            <path d="m 179.1,92.917 a 0.516,0.516 0 0 0 0,1.032 h 1.549 a 0.51634969,0.51634969 0 1 0 0.038,-1.032 z"
                  style="fill:#ffffff"/>
            <path d="m 183.715,92.917 a 0.516,0.516 0 0 0 0,1.032 h 1.548 a 0.51634969,0.51634969 0 1 0 0.038,-1.032 z"
                  style="fill:#ffffff"/>
        </g>
        <path d="M 29.93,20.185 H 27.86 A 1.049,1.049 0 0 1 26.826,19.15 V 17.083 H 22 v -1.035 h 2.495 V 14.494 H 22 v -1.036 h 3.012 a 0.52,0.52 0 0 1 0.517,0.518 v 2.072 H 32.3 a 0.51810641,0.51810641 0 0 1 -0.021,1.036 h -1.313 v 2.066 a 1.053,1.053 0 0 1 -1.036,1.035 z m -2.071,-3.1 v 2.065 h 2.071 v -2.067 z m 4.4,-2.041 H 32.236 A 0.516,0.516 0 0 1 31.742,14.503 V 10.1 c 0,-0.554 -0.56,-1.174 -1.537,-1.7 A 0.515,0.515 0 0 1 29.934,7.944 V 4.879 A 3.872,3.872 0 0 0 26.07,1.035 H 23.36 A 0.531,0.531 0 0 1 22.898,0.535 0.519,0.519 0 0 1 23.36,0 h 2.687 a 4.924,4.924 0 0 1 4.919,4.918 V 7.66 a 3.064,3.064 0 0 1 1.806,2.44 v 4.4 a 0.39,0.39 0 0 1 0,0.046 0.517,0.517 0 0 1 -0.516,0.496 z M 28.9,12.683 a 1.812,1.812 0 1 1 1.812,-1.812 1.814,1.814 0 0 1 -1.812,1.812 z m -0.014,-2.588 a 0.768,0.768 0 0 0 -0.761,0.776 0.776,0.776 0 1 0 0.776,-0.776 z M 11.673,9 H 10.35 A 3.066,3.066 0 0 1 11.813,7.66 V 4.918 A 4.923,4.923 0 0 1 16.73,0 h 3.636 a 0.51,0.51 0 0 1 0.359,0.164 0.517,0.517 0 0 1 -0.376,0.868 H 18.767 16.73 16.69 A 3.862,3.862 0 0 0 12.847,4.915 V 7.941 A 0.52,0.52 0 0 1 12.572,8.395 4.868,4.868 0 0 0 11.672,9 Z M 27.859,7.632 A 0.513,0.513 0 0 1 27.713,7.611 20.7,20.7 0 0 0 21.72,6.726 H 21.388 21.056 A 20.7,20.7 0 0 0 15.064,7.611 0.506,0.506 0 0 1 14.922,7.632 0.519,0.519 0 0 1 14.401,7.118 V 5.179 a 2.418,2.418 0 0 1 0.971,-2 3.588,3.588 0 0 1 1.98,-0.594 q 0.077,0 0.154,0 h 7.764 q 0.075,0 0.15,0 a 3.6,3.6 0 0 1 1.985,0.594 2.426,2.426 0 0 1 0.971,2 V 7.118 A 0.5,0.5 0 0 1 28.355,7.259 0.52,0.52 0 0 1 27.859,7.632 Z M 21.6,5.694 a 21.8,21.8 0 0 1 5.738,0.769 V 5.18 A 1.281,1.281 0 0 0 26.8,4.023 2.657,2.657 0 0 0 25.392,3.623 h -0.121 -7.765 -0.128 a 2.66,2.66 0 0 0 -1.4,0.4 1.284,1.284 0 0 0 -0.541,1.156 v 1.284 a 21.808,21.808 0 0 1 5.739,-0.769 h 0.43 z"
              transform="translate(-24240,-23546)" stroke="rgba(0,0,0,0)" stroke-miterlimit="10"
              style="fill:#ffffff;stroke-width:1;stroke-miterlimit:10"/>
    </g>
</svg>