<svg xmlns="http://www.w3.org/2000/svg" width="32.446" height="22.844" viewBox="0 0 32.446 22.844">
  <g transform="translate(-127.18 -266.943)">
    <g>
      <path d="M129.5,285.9a.519.519,0,0,0-.51.526h0v2.329a1.043,1.043,0,0,0,1.035,1.036H132.1a1.044,1.044,0,0,0,1.035-1.036v-2.329a.518.518,0,0,0-1.035-.045.335.335,0,0,0,0,.045v2.329h-2.071v-2.329a.519.519,0,0,0-.51-.526Zm15.012,0a.519.519,0,0,0-.51.526h0v2.329a1.043,1.043,0,0,0,1.035,1.035h2.071a1.045,1.045,0,0,0,1.035-1.035v-2.329a.518.518,0,1,0-1.035-.051v.006a.335.335,0,0,0,0,.045v2.329h-2.071v-2.329a.52.52,0,0,0-.51-.526Z" fill="#fff"/>
      <path d="M134.9,283.059a.518.518,0,0,0-.469.518v2.33a.518.518,0,1,0,1.035.046h0a.356.356,0,0,0,0-.046V284.1h6.212v1.812a.518.518,0,1,0,1.035.046.35.35,0,0,0,0-.046v-2.33a.52.52,0,0,0-.517-.518Z" fill="#fff"/>
      <path d="M131.061,278.66a1.812,1.812,0,1,0,1.812,1.812h0A1.813,1.813,0,0,0,131.061,278.66Zm0,1.035a.769.769,0,1,1-.014,0Z" fill="#fff"/>
      <path d="M146.075,278.66a1.812,1.812,0,1,0,1.812,1.812h0A1.813,1.813,0,0,0,146.075,278.66Zm0,1.035a.769.769,0,1,1-.014,0Z" fill="#fff"/>
      <path d="M140.539,270.636h2.689a3.864,3.864,0,0,1,3.882,3.844v3.064a.515.515,0,0,0,.27.457c1.066.573,1.537,1.191,1.537,1.7v4.4a.518.518,0,1,0,1.035.046h0a.35.35,0,0,0,0-.046v-4.4a3.056,3.056,0,0,0-1.807-2.44v-2.742a4.918,4.918,0,0,0-4.918-4.918h-2.688Z" fill="#fff"/>
      <path d="M149.484,285.649H128.215V279.7c0-.508.471-1.126,1.537-1.7a.52.52,0,0,0,.275-.453v-3.023a3.864,3.864,0,0,1,3.843-3.883h2.077V269.6H133.91a4.918,4.918,0,0,0-4.918,4.918v2.742a3.053,3.053,0,0,0-1.812,2.434v6.471a.517.517,0,0,0,.518.518h21.741a.518.518,0,1,0,.051-1.034Z" fill="#fff"/>
      <path d="M132.551,272.785a2.42,2.42,0,0,0-.971,2v1.939a.517.517,0,0,0,.522.514h0a.487.487,0,0,0,.141-.021,23.119,23.119,0,0,1,12.65,0,.515.515,0,0,0,.641-.35v0a.477.477,0,0,0,.021-.141v-1.946a2.427,2.427,0,0,0-.971-2,3.613,3.613,0,0,0-2.135-.591h-7.764A3.615,3.615,0,0,0,132.551,272.785Zm9.9.444a2.676,2.676,0,0,1,1.529.4,1.282,1.282,0,0,1,.542,1.157v1.283a23.456,23.456,0,0,0-11.906,0v-1.291a1.279,1.279,0,0,1,.541-1.157,2.672,2.672,0,0,1,1.529-.4h7.765Z" fill="#fff"/>
      <path d="M135.961,269.6a.516.516,0,0,0,0,1.032h1.549a.516.516,0,0,0,.038-1.032Z" fill="#fff"/>
      <path d="M140.576,269.6a.516.516,0,0,0,0,1.032h1.548a.516.516,0,0,0,.038-1.032Z" fill="#fff"/>
    </g>
  </g>
  <g transform="translate(-138.518 -266.269)">
    <circle cx="4.473" cy="4.473" r="4.473" transform="translate(161.518 266.769)" fill="none" stroke="#fff" stroke-miterlimit="10" stroke-width="1"/>
    <path d="M168.688,271.242h-2.7v-2.473" fill="none" stroke="#fff" stroke-linecap="round" stroke-linejoin="round" stroke-width="1"/>
  </g>
</svg>
