<?xml version="1.0" encoding="UTF-8" standalone="no"?>
<svg xmlns="http://www.w3.org/2000/svg" width="37.832" height="45" viewBox="0 0 37.832 45" version="1.1">
    <g transform="translate(-714.401,-724.999)">
        <g transform="translate(593.76,408.277)">
            <path d="m 133.953,333.206 a 0.676,0.676 0 0 0 -0.549,0.39 l -8.1,17.555 a 0.676,0.676 0 0 0 0.327,0.9 0.685,0.685 0 0 0 0.285,0.063 h 25.322 a 0.675,0.675 0 0 0 0,-1.35 h -7.18 l -0.612,-4.485 a 0.674,0.674 0 0 0 -0.665,-0.58 h -5.445 a 0.674,0.674 0 0 0 -0.6,0.58 l -0.612,4.484 h -9.157 l 7.469,-16.205 h 3.872 l -0.253,1.931 a 0.675,0.675 0 0 0 0.573,0.763 0.712,0.712 0 0 0 0.092,0.007 h 2.743 a 0.676,0.676 0 0 0 0.672,-0.679 0.7,0.7 0 0 0 -0.007,-0.091 l -0.253,-1.931 h 3.871 l 7.913,17.151 a 0.67510666,0.67510666 0 0 0 1.224,-0.57 l -8.1,-17.545 a 0.675,0.675 0 0 0 -0.612,-0.39 h -12.22 z m 5.718,1.35 h 0.844 l 0.179,1.35 h -1.2 z m -1.382,4.05 a 0.674,0.674 0 0 0 -0.6,0.58 l -0.591,4.389 a 0.675,0.675 0 0 0 0.573,0.763 0.712,0.712 0 0 0 0.092,0.007 h 4.663 a 0.676,0.676 0 0 0 0.672,-0.679 0.7,0.7 0 0 0 -0.007,-0.091 l -0.591,-4.389 a 0.674,0.674 0 0 0 -0.665,-0.58 z m 0.644,1.35 h 2.321 l 0.4,3.038 h -3.122 z m -0.95,7.09 h 4.22 l 0.5,3.714 h -5.216 z"
                  style="fill:#ffffff"/>
        </g>
        <path d="m 146.151,332.077 h 9.993 a 1.493,1.493 0 0 1 1.587,1.377 v 6.661 c 0,0.134 0.265,0.241 0.594,0.241 h 1.145 c 0.327,0 0.594,-0.107 0.594,-0.241 v -8.038 h 0.536 c 0.7,0 1.273,-0.248 1.273,-0.553 v -8.134 c 0,-0.305 -0.569,-0.553 -1.273,-0.553 h -0.536 v -0.873 c 0,-0.134 -0.266,-0.241 -0.594,-0.241 h -1.145 c -0.329,0 -0.594,0.107 -0.594,0.241 v 0.873 h -28.039 v -0.873 c 0,-0.134 -0.266,-0.241 -0.594,-0.241 h -1.145 c -0.329,0 -0.594,0.107 -0.594,0.241 v 0.873 h -0.846 c -0.7,0 -1.273,0.248 -1.273,0.553 v 8.134 c 0,0.305 0.57,0.553 1.273,0.553 h 0.846 v 8.038 c 0,0.134 0.265,0.241 0.594,0.241 h 1.147 c 0.327,0 0.594,-0.107 0.594,-0.241 v -6.661 a 1.492,1.492 0 0 1 1.586,-1.377 h 10.9"
              transform="translate(589.76,413.484)"
              style="fill:none;stroke:#ffffff;stroke-width:1.20000005;stroke-linecap:round;stroke-linejoin:round"/>
    </g>
    <g transform="translate(29.599,14.001)" style="fill:none;stroke:#ffffff;stroke-width:1">
        <rect width="3" height="3" rx="1" x="0" y="0" style="stroke:none"/>
        <rect x="0.5" y="0.5" width="2" height="2" rx="0.5" style="fill:none"/>
    </g>
    <g transform="translate(25.599,14.001)" style="fill:none;stroke:#ffffff;stroke-width:1">
        <rect width="3" height="3" rx="1" x="0" y="0" style="stroke:none"/>
        <rect x="0.5" y="0.5" width="2" height="2" rx="0.5" style="fill:none"/>
    </g>
    <line x2="23.675001" x1="5.099" y1="14.501" y2="14.501"
          style="fill:none;stroke:#ffffff;stroke-width:1;stroke-linecap:round"/>
    <line x2="23.675001" x1="5.099" y1="16.500999" y2="16.500999"
          style="fill:none;stroke:#ffffff;stroke-width:1;stroke-linecap:round"/>
</svg>