<?xml version="1.0" encoding="UTF-8" standalone="no"?>
<svg xmlns="http://www.w3.org/2000/svg" width="30.891" height="45" viewBox="0 0 30.891 45" version="1.1">
    <g transform="translate(-145.652,-178.50312)">
        <g transform="translate(154.152,213.513)">
            <path d="m 155.277,214.883 a 0.71,0.71 0 0 0 0,1.419 h 2.13 a 0.71,0.71 0 1 0 0.052,-1.419 z"
                  transform="translate(-154.593,-214.883)" style="fill:#ffffff"/>
            <path d="m 163.277,214.883 a 0.71,0.71 0 0 0 0,1.419 h 6.883 a 0.71,0.71 0 1 0 0.052,-1.419 h -6.936 z"
                  transform="translate(-154.987,-214.883)" style="fill:#ffffff"/>
        </g>
        <path d="m 171.562,207.467 h -0.49 a 5.647,5.647 0 0 0 -1.355,-3 6.386,6.386 0 1 0 -10.215,-7.634 c -0.121,-0.006 -0.24,-0.015 -0.361,-0.015 a 7.747,7.747 0 0 0 -6.856,4.338 7.066,7.066 0 0 0 0.467,14.119 h 2.748 v -1.419 h -2.751 a 5.6762202,5.6762202 0 0 1 -0.1,-11.352 0.71,0.71 0 0 0 0.636,-0.427 6.386,6.386 0 0 1 12.119,1.306 0.712,0.712 0 0 0 0.612,0.57 4.25,4.25 0 0 1 3.77,4.225 0.711,0.711 0 0 0 0.71,0.71 h 1.064 a 2.4835,2.4835 0 1 1 0,4.967 h -3.774 v 1.419 h 3.77 a 3.9035,3.9035 0 0 0 0,-7.807 z m -2.907,-3.944 a 5.578,5.578 0 0 0 -2.025,-0.845 7.823,7.823 0 0 0 -5.524,-5.6 4.964,4.964 0 0 1 7.549,6.447 z"
              transform="translate(0,-0.34)" style="fill:#ffffff"/>
        <g transform="translate(158.128,187.07)">
            <path d="m 175.1,197.532 a 0.71,0.71 0 0 0 0,1.419 h 2.13 a 0.71,0.71 0 0 0 0.051,-1.419 z"
                  transform="translate(-159.544,-187.585)" style="fill:#ffffff"/>
            <path d="m 166.872,187.07 a 0.71,0.71 0 0 0 -0.7,0.721 v 0 2.128 a 0.71,0.71 0 0 0 1.419,0.052 v -2.179 a 0.711,0.711 0 0 0 -0.7,-0.721 h -0.02 z"
                  transform="translate(-159.138,-187.07)" style="fill:#ffffff"/>
            <path d="m 174.181,190.133 a 0.71,0.71 0 0 0 -0.488,0.215 l -1.506,1.506 a 0.71018061,0.71018061 0 1 0 0.951,1.055 0.679,0.679 0 0 0 0.052,-0.052 l 1.506,-1.506 a 0.71,0.71 0 0 0 -0.516,-1.218 z"
                  transform="translate(-159.423,-187.221)" style="fill:#ffffff"/>
            <path d="m 159.483,190.133 a 0.71,0.71 0 0 0 -0.5,1.218 l 1.506,1.506 a 0.71,0.71 0 1 0 1.054,-0.951 c -0.016,-0.018 -0.033,-0.035 -0.051,-0.052 l -1.5,-1.506 a 0.712,0.712 0 0 0 -0.511,-0.215 z"
                  transform="translate(-158.774,-187.221)" style="fill:#ffffff"/>
        </g>
    </g>
</svg>