<?xml version="1.0" encoding="UTF-8" standalone="no"?>
<svg id="hide" xmlns="http://www.w3.org/2000/svg" width="16.373" height="13.097" viewBox="0 0 16.373 13.097">
    <g>
        <g>
            <path d="M14.557,49.2a.6.6,0,0,0-.852,0l-2.138,2.138a8.193,8.193,0,0,0-8.173.852A13.657,13.657,0,0,0,.116,55.218a.607.607,0,0,0,.017.735A14.773,14.773,0,0,0,3.694,59.21L1.813,61.092a.6.6,0,1,0,.849.852L14.557,50.052A.605.605,0,0,0,14.557,49.2ZM6.7,56.207a1.564,1.564,0,0,1-.13-.635,1.619,1.619,0,0,1,2.255-1.49ZM9.712,53.2a2.819,2.819,0,0,0-3.9,3.9l-1.24,1.24a12.654,12.654,0,0,1-3.194-2.77A12.87,12.87,0,0,1,4.052,53.2a7.011,7.011,0,0,1,6.6-.939Z" transform="translate(0 -49.023)" fill="#fff"/>
        </g>
    </g>
    <g transform="translate(6.036 3.491)">
        <g>
            <path d="M190.867,156.189a16.109,16.109,0,0,0-2.549-2.549.6.6,0,1,0-.745.949,14.366,14.366,0,0,1,2.045,1.988,13.184,13.184,0,0,1-2.205,2.048,7.432,7.432,0,0,1-6.024,1.567.6.6,0,0,0-.247,1.176,7.487,7.487,0,0,0,1.564.164,7.949,7.949,0,0,0,2.376-.371,10.607,10.607,0,0,0,3.071-1.587,13.8,13.8,0,0,0,2.733-2.65A.607.607,0,0,0,190.867,156.189Z" transform="translate(-180.663 -153.512)" fill="#fff"/>
        </g>
    </g>
</svg>