<svg xmlns="http://www.w3.org/2000/svg" width="222.183" height="39.171" viewBox="0 0 222.183 39.171">
    <g transform="translate(-12.261 -65.573)">
        <path d="M14.874,78.644l3.878,6.644-6.49,4.671L27.911,87.2Z" transform="translate(0 -7.717)" fill="#a767a5"/>
        <g transform="translate(29.798 65.573)">
            <g transform="translate(0 0)">
                <path d="M74.659,104.744A19.585,19.585,0,1,0,55.074,85.159a19.585,19.585,0,0,0,19.585,19.585"
                      transform="translate(-55.074 -65.574)" fill="#7c0e6f"/>
            </g>
            <g transform="translate(0 0)">
                <path d="M74.66,104.744A19.585,19.585,0,1,1,94.245,85.158,19.607,19.607,0,0,1,74.66,104.744Zm0-36.076A16.491,16.491,0,1,0,91.151,85.158,16.51,16.51,0,0,0,74.66,68.667Z"
                      transform="translate(-55.075 -65.573)" fill="#a767a5"/>
            </g>
            <g transform="translate(11.259 20.465)">
                <path d="M85.655,122.206v-5.945a.674.674,0,0,0-.668-.728h-1.7s-.728,0-.728.667v5.945a.674.674,0,0,0,.667.728h1.7s.728,0,.728-.667"
                      transform="translate(-82.561 -115.533)" fill="#fff"/>
            </g>
            <g transform="translate(15.779 17.432)">
                <path d="M96.688,117.834v-8.978a.674.674,0,0,0-.668-.728h-1.7s-.728,0-.728.667v8.978a.674.674,0,0,0,.667.728h1.7s.728,0,.728-.667"
                      transform="translate(-93.594 -108.128)" fill="#fff"/>
            </g>
            <g transform="translate(20.298 14.399)">
                <path d="M107.721,113.463V101.452a.674.674,0,0,0-.668-.728h-1.7s-.728,0-.728.667V113.4a.674.674,0,0,0,.667.728h1.7s.728,0,.728-.667"
                      transform="translate(-104.627 -100.724)" fill="#fff"/>
            </g>
            <g transform="translate(24.817 11.365)">
                <path d="M118.754,109.091V94.047a.674.674,0,0,0-.668-.728h-1.7s-.728,0-.728.667v15.044a.674.674,0,0,0,.667.728h1.7s.728,0,.728-.667"
                      transform="translate(-115.66 -93.319)" fill="#fff"/>
            </g>
        </g>
        <g transform="translate(82.839 68.102)">
            <path d="M203.789,86.746a7.1,7.1,0,0,0-1.661-1.542,7.464,7.464,0,0,0-1.719-.846,7.913,7.913,0,0,0,1.466-2.092,6.729,6.729,0,0,0,.662-2.967v-.465a6.849,6.849,0,0,0-.562-2.765,7.146,7.146,0,0,0-3.781-3.761,7,7,0,0,0-2.783-.561h-9.581a1.24,1.24,0,0,0-.913.356,1.194,1.194,0,0,0-.356.874v27.385a1.128,1.128,0,0,0,.361.86,1.281,1.281,0,0,0,.907.331h12.3a6.992,6.992,0,0,0,2.784-.561,7.094,7.094,0,0,0,3.781-3.782,7,7,0,0,0,.561-2.783v-3.3a7.324,7.324,0,0,0-.381-2.359A6.9,6.9,0,0,0,203.789,86.746ZM200.076,79.3a4.661,4.661,0,0,1-.37,1.833,4.716,4.716,0,0,1-1,1.5,4.766,4.766,0,0,1-1.482,1,4.512,4.512,0,0,1-1.813.37h-8.389V74.168h8.389a4.534,4.534,0,0,1,1.813.369,4.7,4.7,0,0,1,2.484,2.484,4.528,4.528,0,0,1,.369,1.813Zm2.793,11.83v3.3a4.538,4.538,0,0,1-.369,1.813,4.617,4.617,0,0,1-1.019,1.481,4.939,4.939,0,0,1-1.522,1,4.652,4.652,0,0,1-1.833.37h-11.1V86.386h11.1a4.665,4.665,0,0,1,1.833.371A4.733,4.733,0,0,1,202.5,89.3,4.672,4.672,0,0,1,202.869,91.13Z"
                  transform="translate(-184.561 -71.747)" fill="#464545"/>
            <path d="M260.583,75.675a1.134,1.134,0,0,0,.2-.72V72.977a1.162,1.162,0,0,0-.337-.854,1.182,1.182,0,0,0-.854-.375H242.606a1.212,1.212,0,0,0-.85.351,1.163,1.163,0,0,0-.38.879,1.1,1.1,0,0,0,.385.865,1.251,1.251,0,0,0,.844.326h15.721v.367L241.647,97.949a1.043,1.043,0,0,0-.149.342,1.285,1.285,0,0,1-.1.265l-.023.047v1.759a1.312,1.312,0,0,0,.318.8l.036.036a1.417,1.417,0,0,0,.876.359h16.989a1.151,1.151,0,0,0,1.191-1.191,1.307,1.307,0,0,0-.326-.883,1.1,1.1,0,0,0-.865-.385H243.835v-.018Z"
                  transform="translate(-218.103 -71.747)" fill="#464545"/>
        </g>
        <g transform="translate(129.522 71.568)">
            <path d="M397.9,93.518q-1.525-1.327-1.555-1.356a.832.832,0,0,1-.183-.641,1.048,1.048,0,0,1,.244-.671.949.949,0,0,1,.7-.274h4.879a1.241,1.241,0,0,0,.869-.32,1.157,1.157,0,0,0,.351-.9,1.083,1.083,0,0,0-.351-.839,1.24,1.24,0,0,0-.869-.32H397.1a3.111,3.111,0,0,0-2.378.976,3.87,3.87,0,0,0-.7,1.067,3.084,3.084,0,0,0-.274,1.281,3.271,3.271,0,0,0,1.037,2.439q1.464,1.311,2.988,2.637t3.019,2.607a1.419,1.419,0,0,1,.244.732,1.772,1.772,0,0,1-.031.32.717.717,0,0,1-.152.32c-.122.061-.249.127-.381.2a.8.8,0,0,1-.381.107h-5.61a1.1,1.1,0,0,0-1.158,1.158,1.175,1.175,0,0,0,.32.869,1.134,1.134,0,0,0,.839.32h5.61a3.075,3.075,0,0,0,2.348-.976,3.279,3.279,0,0,0-.03-4.757q-2.989-2.653-4.512-3.979m-7.714-2.912a1.218,1.218,0,0,0,.854-2.058,1.188,1.188,0,0,0-.854-.32h-2.592a5.874,5.874,0,0,0-2.348.473,6.057,6.057,0,0,0-1.906,1.28,5.906,5.906,0,0,0-1.723,4.193v3.11a5.908,5.908,0,0,0,1.723,4.223,5.83,5.83,0,0,0,1.906,1.265,6.037,6.037,0,0,0,2.348.458h2.592a1.188,1.188,0,0,0,.854-.32,1.147,1.147,0,0,0,.335-.869,1.107,1.107,0,0,0-.335-.838,1.188,1.188,0,0,0-.854-.32h-2.592a3.392,3.392,0,0,1-1.387-.29,3.537,3.537,0,0,1-1.128-.777,3.859,3.859,0,0,1-.762-1.144,3.389,3.389,0,0,1-.29-1.387v-3.11a3.393,3.393,0,0,1,.29-1.387,3.584,3.584,0,0,1,1.89-1.89,3.4,3.4,0,0,1,1.387-.29Zm-10.793-1.189a1.119,1.119,0,0,0-.351-.869,1.24,1.24,0,0,0-.869-.32,1.132,1.132,0,0,0-.838.32,1.172,1.172,0,0,0-.32.869v12.592a1.038,1.038,0,0,0,1.158,1.189,1.238,1.238,0,0,0,.869-.32,1.119,1.119,0,0,0,.351-.869Zm-.351-2.393a1.18,1.18,0,0,0,.351-.869,1.119,1.119,0,0,0-.351-.869,1.238,1.238,0,0,0-.869-.32,1.131,1.131,0,0,0-.838.32,1.172,1.172,0,0,0-.32.869,1.237,1.237,0,0,0,.32.869,1.08,1.08,0,0,0,.838.351,1.178,1.178,0,0,0,.869-.351m-6.3,13.858a3.466,3.466,0,0,1-1.418-.29,3.718,3.718,0,0,1-1.143-.777,3.518,3.518,0,0,1-.762-1.144,3.558,3.558,0,0,1-.274-1.387V90.606h3.933a1.218,1.218,0,0,0,.854-2.058,1.187,1.187,0,0,0-.854-.32h-3.933v-6.4a1.1,1.1,0,0,0-.366-.869,1.215,1.215,0,0,0-.823-.32,1.238,1.238,0,0,0-.869.32,1.117,1.117,0,0,0-.35.869V97.283a5.765,5.765,0,0,0,.472,2.332,6.094,6.094,0,0,0,1.281,1.89,5.828,5.828,0,0,0,1.906,1.265,6.037,6.037,0,0,0,2.348.458h1.341a1.219,1.219,0,0,0,.824-.32,1.1,1.1,0,0,0,.366-.869,1.06,1.06,0,0,0-.366-.838,1.219,1.219,0,0,0-.824-.32Zm-9.62-12.623a1.35,1.35,0,0,0-.686.641q-1.068,2.226-2.089,4.451t-2.089,4.421L353.871,88.9a1.444,1.444,0,0,0-.671-.656.885.885,0,0,0-.854.046,1.741,1.741,0,0,0-.61.732,1.116,1.116,0,0,0,.061.945q1.281,2.653,2.576,5.244t2.607,5.244l-2.836,5.976a1.817,1.817,0,0,0-.091,1.067,1.085,1.085,0,0,0,.64.7h-.03a1,1,0,0,0,.9.061,1.368,1.368,0,0,0,.716-.61L364.6,89.936a1.481,1.481,0,0,0,.015-.915,1.172,1.172,0,0,0-.564-.7,1.079,1.079,0,0,0-.93-.061m-14.971-7.333a1.119,1.119,0,0,0-.351.869v20.215a1.118,1.118,0,0,0,.351.869,1.28,1.28,0,0,0,.9.32,1.18,1.18,0,0,0,.793-.32,1.094,1.094,0,0,0,.366-.869V81.795a1.1,1.1,0,0,0-.366-.869,1.182,1.182,0,0,0-.793-.32,1.282,1.282,0,0,0-.9.32m-7.074,19.758a2.54,2.54,0,0,1-.991.2h-1.4a2.448,2.448,0,0,1-1.021-.213,2.745,2.745,0,0,1-.823-.564,2.523,2.523,0,0,1-.548-.823,2.6,2.6,0,0,1-.2-1.021,2.455,2.455,0,0,1,.747-1.829,2.533,2.533,0,0,1,1.845-.732h3.11c.163,0,.315,0,.457-.016a1.588,1.588,0,0,0,.4-.076v2.653a2.467,2.467,0,0,1-.762,1.86,2.28,2.28,0,0,1-.808.564m-5.138-12.455a1.24,1.24,0,0,0-.869.32,1.117,1.117,0,0,0-.351.869,1.129,1.129,0,0,0,.351.854,1.206,1.206,0,0,0,.869.335h5.427a1.182,1.182,0,0,1,.915.366,1.259,1.259,0,0,1,.366.976v.4a.967.967,0,0,1-.213.7h.03a.906.906,0,0,1-.671.244h-3.11a5.023,5.023,0,0,0-1.951.381,4.962,4.962,0,0,0-1.616,1.082,4.845,4.845,0,0,0-1.067,1.586,4.97,4.97,0,0,0-.366,1.921,4.856,4.856,0,0,0,.4,1.951,5.055,5.055,0,0,0,1.067,1.585,4.855,4.855,0,0,0,1.586,1.052,5.015,5.015,0,0,0,1.951.381h1.4a4.96,4.96,0,0,0,2.622-.7,1.169,1.169,0,0,0,1.189.7,1.133,1.133,0,0,0,.838-.32,1.173,1.173,0,0,0,.32-.869V91.948a3.733,3.733,0,0,0-1.067-2.652,3.518,3.518,0,0,0-1.219-.793,3.834,3.834,0,0,0-1.4-.274Zm-11.433,0a4.867,4.867,0,0,0-2.683.762,1.059,1.059,0,0,0-1.128-.762,1.24,1.24,0,0,0-.869.32,1.117,1.117,0,0,0-.351.869v12.623a1.118,1.118,0,0,0,.351.869,1.239,1.239,0,0,0,.869.32,1.189,1.189,0,0,0,.854-.32,1.147,1.147,0,0,0,.335-.869V93.167a2.7,2.7,0,0,1,.808-1.815,2.471,2.471,0,0,1,1.814-.747h1.89a2.461,2.461,0,0,1,1.021.213,2.72,2.72,0,0,1,1.388,1.387,2.46,2.46,0,0,1,.213,1.021v8.811a1.12,1.12,0,0,0,.35.869,1.283,1.283,0,0,0,.9.32,1.184,1.184,0,0,0,.793-.32,1.1,1.1,0,0,0,.366-.869V93.228a4.863,4.863,0,0,0-.4-1.951,4.944,4.944,0,0,0-1.083-1.585,5.267,5.267,0,0,0-1.6-1.067,4.864,4.864,0,0,0-1.951-.4Zm-20.58,5.305q.975-2.836,1.905-5.473t1.875-5.412h.488q.944,2.775,1.89,5.442t1.89,5.442Zm6.281-12.47.03.03a1.344,1.344,0,0,0-.381-.655,1.147,1.147,0,0,0-.777-.229H306.8a1.2,1.2,0,0,0-1.128.854q-1.768,5.183-3.537,10.29t-3.537,10.26v-.03a1.374,1.374,0,0,0,.031.945,1.11,1.11,0,0,0,.732.64h-.03a1.049,1.049,0,0,0,.9-.107,1.848,1.848,0,0,0,.686-.686q.549-1.647,1.1-3.2t1.1-3.2h9.7q.61,1.708,1.128,3.217t1.128,3.186v-.03a1.212,1.212,0,0,0,.61.762,1.038,1.038,0,0,0,.914.061,1.216,1.216,0,0,0,.717-.564,1.1,1.1,0,0,0,.106-.777Z"
                  transform="translate(-298.524 -80.209)" fill="#a767a5"/>
        </g>
    </g>
</svg>