<?xml version="1.0" encoding="UTF-8" standalone="no"?>
<svg xmlns="http://www.w3.org/2000/svg" width="21" height="21" viewBox="0 0 21 21" version="1.1">
<g transform="translate(-612.5,-346)">
    <g transform="translate(-291.551,-247.051)">
        <g transform="translate(904.051,593.051)" style="fill:#a5abb7">
            <path d="m 10.5,20.5 c -5.51402,0 -10,-4.485979 -10,-10 0,-5.51402 4.48598,-10 10,-10 5.514021,0 10,4.48598 10,10 0,5.514021 -4.485979,10 -10,10 z"
                  style="stroke:none"/>
            <path d="M 10.5,1 C 5.2616796,1 1,5.2616796 1,10.5 1,15.738319 5.2616796,20 10.5,20 15.738319,20 20,15.738319 20,10.5 20,5.2616796 15.738319,1 10.5,1 m 0,-1 C 16.29899,0 21,4.7010098 21,10.5 21,16.29899 16.29899,21 10.5,21 4.7010098,21 0,16.29899 0,10.5 0,4.7010098 4.7010098,0 10.5,0 Z"
                  style="fill:#ffffff;stroke:none"/>
        </g>
    </g>
</g>
</svg>