<?xml version="1.0" encoding="UTF-8" standalone="no"?>
<svg xmlns="http://www.w3.org/2000/svg" width="125" height="155" viewBox="0 0 125 155" version="1.1">
    <defs>
        <filter id="Ellipse_34" x="30" y="103.001" width="52" height="52" filterUnits="userSpaceOnUse">
            <feOffset dy="3" input="SourceAlpha"/>
            <feGaussianBlur stdDeviation="3" result="blur"/>
            <feFlood flood-opacity="0.161" id="feFlood6"/>
            <feComposite operator="in" in2="blur" result="result1"/>
            <feComposite in="SourceGraphic" in2="result1"/>
        </filter>
        <filter id="Vereinigungsmenge_3" x="0" y="0" width="125" height="156.444" filterUnits="userSpaceOnUse">
            <feOffset dx="10" input="SourceAlpha"/>
            <feGaussianBlur stdDeviation="10" result="blur-2"/>
            <feFlood flood-opacity="0.051"/>
            <feComposite operator="in" in2="blur-2" result="result1"/>
            <feComposite in="SourceGraphic" in2="result1"/>
        </filter>
    </defs>
    <g transform="translate(-587.4,-336.1)">
        <g transform="translate(16991,21308)">
            <circle cx="49" cy="49" r="49" transform="translate(-16390,-20915)" style="opacity:0.3;fill: #9399E5" class="marker-color"/>
        </g>
        <g transform="translate(25150,24274)">
            <g transform="translate(-24556,-23958)" style="filter:url(#Ellipse_34)">
                <circle cx="17" cy="17" r="17" transform="translate(39,109)"
                        style="fill:#ffffff"/>
            </g>
            <circle cx="6" cy="6" r="6" transform="translate(-24506,-23838)" class="marker-color" style="fill: #9399E5"/>
            <g transform="translate(-24556,-23958)" style="filter:url(#Vereinigungsmenge_3)">
                <path d="m -4233.939,-1914.117 a 36.505,36.505 0 0 1 -33.061,-36.34 36.5,36.5 0 0 1 36.5,-36.5 36.5,36.5 0 0 1 36.5,36.5 36.5,36.5 0 0 1 -33.476,36.376 l -3.86,23.567 z"
                      transform="translate(4287,2016.96)"  class="marker-color" style="fill: #9399E5"/>
            </g>
        </g>
        <g transform="translate(-234.051,-246.051)">
            <g transform="translate(904.051,593.051)" style="fill:#a5abb7;stroke:#ffffff;stroke-width:1">
                <circle cx="10.5" cy="10.5" r="10.5" style="stroke:none"/>
                <circle cx="10.5" cy="10.5" r="10" style="fill:none"/>
            </g>
        </g>
    </g>
</svg>