<svg xmlns="http://www.w3.org/2000/svg" viewBox="0 0 82.551 113.97"  width="100px" height="100px">
  <defs>
    <style>
      .cls-1 {
        fill: #94a9bd;
      }

      .cls-2 {
        fill: #fff;
      }
    </style>
  </defs>
  <g id="Gruppe_200" data-name="Gruppe 200" transform="translate(-972 -343)">
    <g id="maps-and-flags" transform="translate(901.427 343)">
      <g id="Gruppe_4" data-name="Gruppe 4" transform="translate(70.573)">
        <path id="Pfad_2" data-name="Pfad 2" class="cls-1" d="M111.849,0A41.322,41.322,0,0,0,70.573,41.275c0,28.245,36.938,69.71,38.51,71.461a3.718,3.718,0,0,0,5.531,0c1.573-1.751,38.51-43.217,38.51-71.461A41.323,41.323,0,0,0,111.849,0Z" transform="translate(-70.573)"/>
      </g>
    </g>
    <g id="wind-sign_1_" data-name="wind-sign (1)" transform="translate(996 364.477)">
      <g id="Gruppe_91" data-name="Gruppe 91" transform="translate(0 0)">
        <path id="Pfad_37" data-name="Pfad 37" class="cls-2" d="M18.045,119.438H44.2a6.877,6.877,0,0,0,.016-13.753,6.808,6.808,0,0,0-4.6,1.79A6.452,6.452,0,0,0,37.79,112.3a1.614,1.614,0,1,0,3.228,0,3.39,3.39,0,0,1,.835-2.5,3.632,3.632,0,0,1,2.313-.889H44.2a3.649,3.649,0,1,1,0,7.3H18.045a1.614,1.614,0,0,0,0,3.228Z" transform="translate(-16.431 -99.362)"/>
        <path id="Pfad_38" data-name="Pfad 38" class="cls-2" d="M18.045,13.754H30.511A6.877,6.877,0,0,0,30.528,0a6.805,6.805,0,0,0-4.6,1.79A6.453,6.453,0,0,0,24.1,6.613a1.614,1.614,0,1,0,3.228,0,3.39,3.39,0,0,1,.835-2.5,3.633,3.633,0,0,1,2.314-.889h.034a3.649,3.649,0,1,1,0,7.3H18.045a1.614,1.614,0,0,0,0,3.228Z" transform="translate(-16.431 0)"/>
        <path id="Pfad_39" data-name="Pfad 39" class="cls-2" d="M44.2,382.093H18.045a1.614,1.614,0,1,0,0,3.228H44.2a3.649,3.649,0,1,1,0,7.3h-.034a3.633,3.633,0,0,1-2.313-.889,3.39,3.39,0,0,1-.835-2.5,1.614,1.614,0,1,0-3.228,0,6.452,6.452,0,0,0,1.825,4.822,6.794,6.794,0,0,0,4.546,1.791h.055a6.877,6.877,0,0,0-.017-13.753Z" transform="translate(-16.431 -359.235)"/>
      </g>
    </g>
  </g>
</svg>
