<svg xmlns="http://www.w3.org/2000/svg" viewBox="0 0 82.551 113.97"  width="100px" height="100px">
  <defs>
    <style>
      .cls-1 {
        fill: #2c70b9;
      }

      .cls-2 {
        fill: #fff;
      }
    </style>
  </defs>
  <g id="Gruppe_195" data-name="Gruppe 195" transform="translate(-245 -343)">
    <g id="maps-and-flags" transform="translate(174.427 343)">
      <g id="Gruppe_4" data-name="Gruppe 4" transform="translate(70.573)">
        <path id="Pfad_2" data-name="Pfad 2" class="cls-1" d="M111.849,0A41.322,41.322,0,0,0,70.573,41.275c0,28.245,36.938,69.71,38.51,71.461a3.718,3.718,0,0,0,5.531,0c1.573-1.751,38.51-43.217,38.51-71.461A41.323,41.323,0,0,0,111.849,0Z" transform="translate(-70.573)"/>
      </g>
    </g>
    <g id="Gruppe_103" data-name="Gruppe 103" transform="translate(263 359.428)">
      <g id="bluetooth" transform="translate(0 0)">
        <path id="Pfad_3" data-name="Pfad 3" class="cls-2" d="M271,122.633l5.211-5.211L271,112.211Zm0,0" transform="translate(-246.206 -102.025)"/>
        <path id="Pfad_4" data-name="Pfad 4" class="cls-2" d="M271,302.633l5.211-5.211L271,292.211Zm0,0" transform="translate(-246.206 -265.686)"/>
        <path id="Pfad_5" data-name="Pfad 5" class="cls-1" d="M23.566,0A23.566,23.566,0,1,0,47.133,23.566,23.658,23.658,0,0,0,23.566,0Z" transform="translate(0)"/>
      </g>
      <g id="bluetooth-2" data-name="bluetooth" transform="translate(0 0)">
        <path id="Pfad_3-2" data-name="Pfad 3" class="cls-2" d="M271,122.633l5.211-5.211L271,112.211Zm0,0" transform="translate(-246.206 -102.025)"/>
        <path id="Pfad_4-2" data-name="Pfad 4" class="cls-2" d="M271,302.633l5.211-5.211L271,292.211Zm0,0" transform="translate(-246.206 -265.686)"/>
        <path id="Pfad_5-2" data-name="Pfad 5" class="cls-2" d="M23.566,0A23.566,23.566,0,1,0,47.133,23.566,23.658,23.658,0,0,0,23.566,0Zm9.261,30.875a1.38,1.38,0,0,1,0,1.953l-8.285,8.285a1.381,1.381,0,0,1-2.357-.976V27.708l-5.8,7.733a1.38,1.38,0,0,1-2.209-1.656l7.664-10.219L14.177,13.347a1.38,1.38,0,0,1,2.209-1.656l5.8,7.733V7a1.381,1.381,0,0,1,2.357-.976L32.828,14.3a1.38,1.38,0,0,1,0,1.953l-7.309,7.309Zm0,0" transform="translate(0)"/>
      </g>
    </g>
  </g>
</svg>
