<svg xmlns="http://www.w3.org/2000/svg" viewBox="0 0 82.551 113.97"  width="100px" height="100px">
  <defs>
    <style>
      .cls-1 {
        fill: #930044;
      }

      .cls-2 {
        fill: #fff;
      }
    </style>
  </defs>
  <g id="Gruppe_197" data-name="Gruppe 197" transform="translate(-485 -343)">
    <g id="maps-and-flags" transform="translate(414.427 343)">
      <g id="Gruppe_4" data-name="Gruppe 4" transform="translate(70.573)">
        <path id="Pfad_2" data-name="Pfad 2" class="cls-1" d="M111.849,0A41.322,41.322,0,0,0,70.573,41.275c0,28.245,36.938,69.71,38.51,71.461a3.718,3.718,0,0,0,5.531,0c1.573-1.751,38.51-43.217,38.51-71.461A41.323,41.323,0,0,0,111.849,0Z" transform="translate(-70.573)"/>
      </g>
    </g>
    <g id="car-changing-lanes" transform="translate(508 360.711)">
      <g id="swap-driving-apps" transform="translate(0)">
        <path id="Pfad_31" data-name="Pfad 31" class="cls-2" d="M83.4,14.264a3.065,3.065,0,0,0-2.853-2.038H57.113V8.151L51,14.264l4.075,4.075,2.038,2.038V16.3H80.955L83.6,24.453H51v18.34a1.925,1.925,0,0,0,2.038,2.038h2.038a1.925,1.925,0,0,0,2.038-2.038V40.755H81.566v2.038A1.925,1.925,0,0,0,83.6,44.83h2.038a1.925,1.925,0,0,0,2.038-2.038V26.49ZM58.132,34.641a3.057,3.057,0,1,1,3.057-3.057A3.134,3.134,0,0,1,58.132,34.641Zm22.415,0A3.057,3.057,0,1,1,83.6,31.585,3.134,3.134,0,0,1,80.547,34.641ZM77.491,0V4.075h-16.3V8.151h16.3v4.075L83.6,6.113Z" transform="translate(-51)"/>
      </g>
    </g>
  </g>
</svg>
