<svg xmlns="http://www.w3.org/2000/svg" viewBox="0 0 82.551 113.97"  width="100px" height="100px">
  <defs>
    <style>
      .cls-1 {
        fill: #c44921;
      }

      .cls-2 {
        fill: #fff;
      }
    </style>
  </defs>
  <g id="Gruppe_203" data-name="Gruppe 203" transform="translate(-1523 -343)">
    <g id="maps-and-flags" transform="translate(1452.427 343)">
      <g id="Gruppe_4" data-name="Gruppe 4" transform="translate(70.573)">
        <path id="Pfad_2" data-name="Pfad 2" class="cls-1" d="M111.849,0A41.322,41.322,0,0,0,70.573,41.275c0,28.245,36.938,69.71,38.51,71.461a3.718,3.718,0,0,0,5.531,0c1.573-1.751,38.51-43.217,38.51-71.461A41.323,41.323,0,0,0,111.849,0Z" transform="translate(-70.573)"/>
      </g>
    </g>
    <g id="clock_3_" data-name="clock (3)" transform="translate(1540 359.137)">
      <g id="Gruppe_174" data-name="Gruppe 174" transform="translate(0 0.168)">
        <path id="Pfad_109" data-name="Pfad 109" class="cls-2" d="M46.1,14.818A23.525,23.525,0,0,0,33.317,2.085,23.6,23.6,0,0,0,23.97.168a23.356,23.356,0,0,0-9.32,1.917A23.6,23.6,0,0,0,1.89,14.818a23.987,23.987,0,0,0,0,18.667,23.651,23.651,0,0,0,12.76,12.76,23.357,23.357,0,0,0,9.32,1.916,23.608,23.608,0,0,0,9.346-1.916A23.577,23.577,0,0,0,46.1,33.485a23.684,23.684,0,0,0,0-18.667ZM42.27,34.745a21.065,21.065,0,0,1-7.719,7.692,20.679,20.679,0,0,1-10.58,2.835,20.331,20.331,0,0,1-8.191-1.68A21.467,21.467,0,0,1,9.058,39.1a21.338,21.338,0,0,1-4.489-6.748,20.671,20.671,0,0,1-1.654-8.218,20.64,20.64,0,0,1,2.81-10.554,21.075,21.075,0,0,1,7.692-7.692A20.519,20.519,0,0,1,23.97,3.056,20.678,20.678,0,0,1,34.55,5.892a21.128,21.128,0,0,1,7.719,7.692A20.52,20.52,0,0,1,45.1,24.138,20.718,20.718,0,0,1,42.27,34.745Z" transform="translate(0 -0.168)"/>
        <path id="Pfad_110" data-name="Pfad 110" class="cls-2" d="M290.06,125.991v-13.6a1.514,1.514,0,0,0-1.523-1.47,1.48,1.48,0,0,0-1.444,1.47V126.2a1.2,1.2,0,0,1,.053.21,1.373,1.373,0,0,0,.394,1.182l7.85,7.85a1.494,1.494,0,0,0,2.021,0,1.416,1.416,0,0,0,0-2.048Z" transform="translate(-264.567 -102.231)"/>
      </g>
    </g>
  </g>
</svg>
