<svg xmlns="http://www.w3.org/2000/svg" viewBox="0 0 82.551 113.97"  width="100px" height="100px">
  <defs>
    <style>
      .cls-1 {
        fill: #896b3a;
      }

      .cls-2 {
        fill: #fff;
      }
    </style>
  </defs>
  <g id="Gruppe_201" data-name="Gruppe 201" transform="translate(-1089 -344)">
    <g id="maps-and-flags" transform="translate(1018.427 344)">
      <g id="Gruppe_4" data-name="Gruppe 4" transform="translate(70.573)">
        <path id="Pfad_2" data-name="Pfad 2" class="cls-1" d="M111.849,0A41.322,41.322,0,0,0,70.573,41.275c0,28.245,36.938,69.71,38.51,71.461a3.718,3.718,0,0,0,5.531,0c1.573-1.751,38.51-43.217,38.51-71.461A41.323,41.323,0,0,0,111.849,0Z" transform="translate(-70.573)"/>
      </g>
    </g>
    <g id="road-perspective_1_" data-name="road-perspective (1)" transform="translate(1106.96 368.504)">
      <path id="Pfad_95" data-name="Pfad 95" class="cls-2" d="M45.793,104.939,35.149,78.29a2.09,2.09,0,0,0-.663-.842,1.556,1.556,0,0,0-.97-.358H24.862a.828.828,0,0,1,.587.242.865.865,0,0,1,.281.574l.383,4.9a.718.718,0,0,1-.2.587.765.765,0,0,1-.562.23H21.11a.764.764,0,0,1-.561-.23.716.716,0,0,1-.2-.587l.383-4.9a.861.861,0,0,1,.281-.574.829.829,0,0,1,.587-.242H12.942a1.555,1.555,0,0,0-.97.358,2.09,2.09,0,0,0-.663.842L.664,104.939A7.686,7.686,0,0,0,0,107.9q0,1.863,1.174,1.863h17.97a.744.744,0,0,1-.561-.242.721.721,0,0,1-.2-.575l.51-6.534a.863.863,0,0,1,.281-.575.826.826,0,0,1,.587-.242H26.7a.827.827,0,0,1,.587.242.862.862,0,0,1,.281.575l.511,6.534a.722.722,0,0,1-.2.575.744.744,0,0,1-.562.242h17.97q1.174,0,1.174-1.863A7.685,7.685,0,0,0,45.793,104.939Zm-18.71-8.96a.585.585,0,0,1-.2.51.78.78,0,0,1-.536.2H20.114a.78.78,0,0,1-.536-.2.585.585,0,0,1-.2-.51v-.1l.613-8.168a.862.862,0,0,1,.281-.574.827.827,0,0,1,.587-.242H25.6a.826.826,0,0,1,.587.242.864.864,0,0,1,.281.574l.613,8.168v.1Z" transform="translate(0 -77.09)"/>
    </g>
  </g>
</svg>
