<?xml version="1.0" encoding="UTF-8" standalone="no"?>
<svg xmlns="http://www.w3.org/2000/svg" width="80" height="113"
     viewBox="0 0 77 113" version="1.1">
    <g transform="translate(-612.5,-346)">
        <g transform="translate(25150,24274)">
            <g transform="translate(-24556,-23958)">
                <circle cx="17" cy="17" r="17" transform="translate(39,109)" style="fill:#ffffff"/>
            </g>
            <path d="M 6,0 A 6,6 0 1 1 0,6 6,6 0 0 1 6,0 Z" transform="translate(-24506,-23838)" class="marker-color"/>
            <g transform="translate(-24556,-23958)">
                <path d="m -4233.939,-1914.117 a 36.505,36.505 0 0 1 -33.061,-36.34 36.5,36.5 0 0 1 36.5,-36.5 36.5,36.5 0 0 1 36.5,36.5 36.5,36.5 0 0 1 -33.476,36.376 l -3.86,23.567 z"
                      transform="translate(4287,2016.96)" class="marker-color"/>
            </g>
        </g>
    </g>
</svg>