<?xml version="1.0" encoding="UTF-8" standalone="no"?>
<svg xmlns="http://www.w3.org/2000/svg" width="98" height="145" viewBox="0 0 98 145" version="1.1">
    <g transform="translate(-594 -315.999)">
        <g transform="translate(16984,21277.999)">
            <circle cx="49" cy="49" r="49" transform="translate(-16390,-20915)" class="marker-color" style="opacity:0.3;"/>
        </g>
        <g transform="translate(25150 24274)">
            <g transform="translate(-24563,-23988.001)">
                <circle cx="17" cy="17" r="17" transform="translate(39,109)" style="fill:#ffffff"/>
            </g>
            <circle cx="-24507" cy="-23862.002" r="6" class="marker-color"/>
            <g transform="matrix(1, 0, 0, 1, -24556, -23958)">
                <path d="M 46.061,72.842 A 36.505,36.505 0 0 1 13,36.502 36.5,36.5 0 0 1 49.5,0.002 36.5,36.5 0 0 1 86,36.502 36.5,36.5 0 0 1 52.524,72.878 l -3.86,23.567 z"
                      class="marker-color"/>
            </g>
        </g>
        <g transform="translate(-241.051,-276.052)">
            <g transform="translate(904.051,593.051)" style="fill:#a5abb7;stroke:#ffffff;stroke-width:1">
                <circle cx="10.5" cy="10.5" r="10.5" style="stroke:none"/>
                <circle cx="10.5" cy="10.5" r="10" style="fill:none"/>
            </g>
            <text transform="translate(911.051,607.051)" font-size="11" font-weight="700"
                  style="font-weight:700;font-size:11px;font-family:SegoeUI-Bold, 'Segoe UI';fill:#ffffff">
                <tspan x="0" y="0" class="cluster-size">4</tspan>
            </text>
        </g>
    </g>
</svg>